<svg id="Layer_1" data-name="Layer 1" xmlns="http://www.w3.org/2000/svg" viewBox="0 0 616 616"><defs><style>.cls-1{fill:#fff;}</style></defs><title>whiteArtboard 2</title><g id="logo"><path class="cls-1" d="M525.79,90.21A308,308,0,0,0,90.21,525.79,308,308,0,0,0,525.79,90.21Zm-12,423.56A291,291,0,0,1,102.23,102.23,291,291,0,0,1,513.77,513.77Z"/><path class="cls-1" d="M292.64,126.25a684.11,684.11,0,0,0-77.27-.3c-56.21,3.28-87,14.52-94.28,34.35-6.74,18.48,7.64,40.36,44,66.86l21.37,14.39a282,282,0,0,0-49,29.27c-41.5,31.3-60.7,68.1-55.52,106.41,6.16,45.63,25,74.52,59.45,90.91,29.24,13.93,71.37,20,139.73,20q5.21,0,10.62,0l8.43-.08V302.77l.46-176Zm-76.43,16.68a672.8,672.8,0,0,1,67.32-.15l-.26,102.43-133.4-89.88C160.66,150.25,180.34,145,216.21,142.93ZM175,213.33C148.12,193.73,134.33,177,136.79,167l146.42,98.65,0,20.52ZM283.12,471.15c-66.89.16-107.34-5.43-134.47-18.36-29.52-14.06-44.44-37.34-49.92-77.83C89.3,305.13,182,261.73,202.48,253l80.64,53.64Z"/><path class="cls-1" d="M486.42,129.08V379.86L333.77,278.09v-149h-17V486.5h17V339.71L486.42,441.47v45h17V129.08Zm0,292L333.77,319.28V298.52L486.42,400.29Z"/></g></svg>