<?xml version="1.0" encoding="utf-8"?>
<!-- Generator: Adobe Illustrator 18.1.0, SVG Export Plug-In . SVG Version: 6.00 Build 0)  -->
<!DOCTYPE svg PUBLIC "-//W3C//DTD SVG 1.1//EN" "http://www.w3.org/Graphics/SVG/1.1/DTD/svg11.dtd">
<svg version="1.1" id="Layer_1" xmlns="http://www.w3.org/2000/svg" xmlns:xlink="http://www.w3.org/1999/xlink" x="0px" y="0px"
	 viewBox="0 0 318.9 172.6" enable-background="new 0 0 318.9 172.6" xml:space="preserve">
<g>
	<rect x="59.4" y="6" fill="#FFFFFF" width="181.8" height="109.6"/>
	<polygon fill="#E0DDD1" points="240.5,113.5 59.5,15.8 59.5,115.7 240.5,115.6 	"/>
	<rect x="59.4" y="6" fill="none" stroke="#000000" stroke-width="2.6879" stroke-miterlimit="10" width="182" height="109.6"/>
	<rect x="69.4" y="15.8" width="160" height="89.1"/>
	
		<rect x="135.4" y="115.6" fill="#E0DDD1" stroke="#000000" stroke-width="2.6879" stroke-miterlimit="10" width="29.9" height="29.9"/>
	<rect x="111" y="145.5" fill="#E0DDD1" stroke="#000000" stroke-width="2.6879" stroke-miterlimit="10" width="78.7" height="8"/>
	<polygon opacity="0.2" fill="#FFFFFF" points="225.5,18.3 225.5,101.2 72.4,18.3 	"/>
</g>
<g>
	<rect x="5.2" y="65.3" fill="#FFFFFF" width="70.4" height="92.6"/>
	<polyline fill="#E0DDD1" points="75.1,159.3 6.5,74.7 6.5,159.3 	"/>
	<g>
		<path d="M75.6,65.9V158H6.5V65.9H75.6 M77.7,63.9h-2.1H6.5H4.4v2.1V158v2.1h2.1h69.1h2.1V158V65.9V63.9L77.7,63.9z"/>
	</g>
	<rect x="10.8" y="75.6" stroke="#000000" stroke-width="2.1709" stroke-miterlimit="10" width="59.7" height="70.9"/>
	
		<rect x="40.1" y="151.7" fill="#FFFFFF" stroke="#000000" stroke-width="2.8506" stroke-miterlimit="10" width="1.1" height="1.1"/>
	<polygon opacity="0.2" fill="#FFFFFF" points="67.5,77.3 67.5,143.7 12.7,77.3 	"/>
</g>
<g>
	<rect x="52.9" y="95" fill="#FFFFFF" width="43" height="73.7"/>
	<polyline fill="#E0DDD1" points="90.9,168.5 53.5,101 53.5,168.3 	"/>
	<g>
		<path d="M94,96.7v70.4H54.2V96.7H94 M96.7,94H94H54.2h-2.7v2.7v70.4v2.7h2.7H94h2.7v-2.7V96.7V94L96.7,94z"/>
	</g>
	<rect x="58.4" y="104.1" stroke="#000000" stroke-width="2.6879" stroke-miterlimit="10" width="30.9" height="54.2"/>
	<line fill="#FFFFFF" stroke="#000000" stroke-width="2" stroke-miterlimit="10" x1="70.5" y1="100.3" x2="77.5" y2="100.3"/>
	
		<rect x="73.2" y="162.4" fill="#FFFFFF" stroke="#000000" stroke-width="2.1503" stroke-miterlimit="10" width="1.3" height="1.3"/>
	<path stroke="#000000" stroke-width="2.4563" stroke-miterlimit="10" d="M58.4,104.1"/>
	<polygon opacity="0.2" fill="#FFFFFF" points="88.5,106.3 88.5,156.2 59.5,106.3 	"/>
	<line fill="none" stroke="#000000" stroke-width="2.6879" stroke-miterlimit="10" x1="89.3" y1="158.4" x2="88.1" y2="156.2"/>
</g>
<g>
	<rect x="157.4" y="71.4" fill="#FFFFFF" width="148.8" height="89.7"/>
	<polygon fill="#E0DDD1" points="306.5,159.4 157.5,79.5 157.5,161.2 306.5,161.2 	"/>
	<rect x="157.4" y="71.4" fill="none" stroke="#000000" stroke-width="2.6879" stroke-miterlimit="10" width="149" height="89.7"/>
	<rect x="162.5" y="77.7" width="137.1" height="76.4"/>
	<polygon opacity="0.2" fill="#FFFFFF" points="296.5,81.3 296.5,150.9 165.1,81.3 	"/>
	
		<rect x="150.6" y="161.2" fill="#FFFFFF" stroke="#000000" stroke-width="2.6879" stroke-miterlimit="10" width="163.2" height="7.4"/>
	
		<rect x="218.3" y="162.4" fill="#FFFFFF" stroke="#000000" stroke-width="1.8482" stroke-miterlimit="10" width="27.8" height="1.4"/>
	<rect x="231.4" y="74.9" fill="none" stroke="#000000" stroke-width="1.0302" stroke-miterlimit="10" width="0.7" height="0.7"/>
</g>
</svg>
