<?xml version="1.0" encoding="utf-8"?>
<!-- Generator: Adobe Illustrator 18.1.0, SVG Export Plug-In . SVG Version: 6.00 Build 0)  -->
<!DOCTYPE svg PUBLIC "-//W3C//DTD SVG 1.1//EN" "http://www.w3.org/Graphics/SVG/1.1/DTD/svg11.dtd">
<svg version="1.1" id="Layer_1" xmlns="http://www.w3.org/2000/svg" xmlns:xlink="http://www.w3.org/1999/xlink" x="0px" y="0px"
	 viewBox="-17.6 108.2 638 371.8" enable-background="new -17.6 108.2 638 371.8" xml:space="preserve">
<g>
	<rect x="111.5" y="125.6" fill="#FFFFFF" width="344.4" height="207.7"/>
	<polygon fill="#E0DDD1" points="454.6,329.3 111.6,144.2 111.6,333.4 454.6,333.3 	"/>
	<rect x="111.5" y="125.6" fill="none" stroke="#000000" stroke-width="5" stroke-miterlimit="10" width="344.8" height="207.7"/>
	<rect x="130.4" y="144.2" width="303.1" height="168.8"/>
	<rect x="255.4" y="333.3" fill="#E0DDD1" stroke="#000000" stroke-width="5" stroke-miterlimit="10" width="56.6" height="56.6"/>
	<rect x="209.2" y="389.9" fill="#E0DDD1" stroke="#000000" stroke-width="5" stroke-miterlimit="10" width="149.1" height="15.2"/>
	<polygon opacity="0.2" fill="#FFFFFF" enable-background="new    " points="426.2,148.9 426.2,306 136.1,148.9 	"/>
</g>
<g>
	<rect x="8.8" y="238" fill="#FFFFFF" width="133.4" height="175.4"/>
	<polyline fill="#E0DDD1" points="141.2,416 11.2,255.8 11.2,416 	"/>
	<g>
		<path stroke="#000000" stroke-miterlimit="10" d="M142.1,239.1v174.4H11.2V239.1H142.1 M146.1,235.3h-4H11.2h-4v4v174.3v4h4h130.9
			h4v-4V239.1V235.3L146.1,235.3z"/>
	</g>
	<rect x="19.4" y="257.5" stroke="#000000" stroke-width="2.1709" stroke-miterlimit="10" width="113.1" height="134.3"/>
	
		<rect x="74.9" y="401.7" fill="#FFFFFF" stroke="#000000" stroke-width="2.8506" stroke-miterlimit="10" width="2.1" height="2.1"/>
	<polygon opacity="0.2" fill="#FFFFFF" enable-background="new    " points="126.8,260.7 126.8,386.5 23,260.7 	"/>
</g>
<g>
	<rect x="99.2" y="294.3" fill="#FFFFFF" width="81.5" height="139.6"/>
	<polyline fill="#E0DDD1" points="171.1,433.5 100.3,305.6 100.3,433.1 	"/>
	<g>
		<path d="M177,297.5v133.4h-75.4V297.5H177 M182.2,292.4h-5.1h-75.4h-5.1v5.1v133.4v5.1h5.1h75.4h5.1v-5.1V297.5V292.4L182.2,292.4
			z"/>
	</g>
	<rect x="109.6" y="311.5" stroke="#000000" stroke-width="2.6879" stroke-miterlimit="10" width="58.5" height="102.7"/>
	<line fill="none" stroke="#000000" stroke-width="2" stroke-miterlimit="10" x1="132.5" y1="304.3" x2="145.7" y2="304.3"/>
	
		<rect x="137.6" y="421.9" fill="#FFFFFF" stroke="#000000" stroke-width="2.1503" stroke-miterlimit="10" width="2.5" height="2.5"/>
	<path stroke="#000000" stroke-width="2.4563" stroke-miterlimit="10" d="M109.6,311.5"/>
	<polygon opacity="0.2" fill="#FFFFFF" enable-background="new    " points="166.6,315.6 166.6,410.2 111.6,315.6 	"/>
	<line fill="none" stroke="#000000" stroke-width="2.6879" stroke-miterlimit="10" x1="168.1" y1="414.3" x2="165.8" y2="410.2"/>
</g>
<g>
	<rect x="297.1" y="249.5" fill="#FFFFFF" width="281.9" height="169.9"/>
	<polygon fill="#E0DDD1" points="579.6,416.2 297.3,264.9 297.3,419.6 579.6,419.6 	"/>
	<rect x="297.1" y="249.5" fill="none" stroke="#000000" stroke-width="5" stroke-miterlimit="10" width="282.2" height="169.9"/>
	<rect x="306.8" y="261.4" width="259.7" height="144.7"/>
	<polygon opacity="0.2" fill="#FFFFFF" enable-background="new    " points="560.6,268.3 560.6,400.1 311.7,268.3 	"/>
	<rect x="284.2" y="419.6" fill="#FFFFFF" stroke="#000000" stroke-width="5" stroke-miterlimit="10" width="309.1" height="14.1"/>
	<rect x="412.5" y="422.9" fill="#FFFFFF" stroke="#000000" stroke-width="3" stroke-miterlimit="10" width="52.7" height="2.6"/>
	<rect x="437.3" y="256.1" fill="none" stroke="#000000" stroke-width="2" stroke-miterlimit="10" width="1.3" height="1.3"/>
</g>
</svg>
