<?xml version="1.0" encoding="utf-8"?>
<!-- Generator: Adobe Illustrator 18.1.1, SVG Export Plug-In . SVG Version: 6.00 Build 0)  -->
<!DOCTYPE svg PUBLIC "-//W3C//DTD SVG 1.1//EN" "http://www.w3.org/Graphics/SVG/1.1/DTD/svg11.dtd">
<svg version="1.1" id="Layer_1" xmlns="http://www.w3.org/2000/svg" xmlns:xlink="http://www.w3.org/1999/xlink" x="0px" y="0px"
	 viewBox="0 0 946 436.9" enable-background="new 0 0 946 436.9" xml:space="preserve">
<path fill="#FFFFFF" stroke="#FFFFFF" stroke-width="2" stroke-miterlimit="10" d="M464.2,285.7c3.2-16.7,6.7-31.7,10.1-47.3
	c3.2-14.3,7.3-28.5,10.8-42.7c3.6-14.8,6.8-29.7,10.1-44.5c1.2-5.4,1.9-11,3-16.4c0.6-2.8-0.1-3.8-3.1-3
	c-12.3,3.4-24.6,6.5-36.8,10.1c-1.8,0.6-3.9,3.2-4.4,5.2c-3.3,13.7-6.1,27.6-9.1,41.4c-3.7,17.2-7.8,34.4-11.2,51.7
	c-3.5,18.1-6.5,36.3-9.6,54.5c-1.4,8.2-3.3,10.1-13.1,8.6c-4.5-0.7-10.3-0.2-9.6-6.5c1.3-10.6,2.3-21.3,4-31.8
	c2.5-15.6,5.2-31.2,8.2-46.7c1.9-9.9,4.3-19.6,6.4-29.5c2.4-11.5,4.6-23.1,7-34.6c0.7-3.2-0.4-3.7-3.4-3c-20.1,4.5-32.1,6.8-52.3,11
	c-8.3,1.7-17.8,7.2-21.8-6.6c-1.6-5-2.8-11.9-2.8-11.9c-0.4-3.3,5.3-4.9,8.3-5.6c26.8-6,45.5-9.4,72.4-14.9c4.7-1,6.9-3.2,8.3-8
	c3-10.5,6.5-21,10.4-31.2c3.3-10,5.5-7.9,13.2-5.7c7.7,1.5,9.6,0.5,7.4,10.7c-0.9,6.9-3,13.6-4.5,20.3c-0.3,1.3-0.3,2.7-0.4,4
	c1.3,0,2.7,0.4,4,0.1c11.3-2.9,22.4-6.2,33.8-8.8c5.9-1.3,6.9-5.6,7.8-10.2c2.7-14.8,5.2-29.6,8-44.4c0.8-4.1,2-8,3.4-12
	c2.8-11.8,4.4-9,12.9-8c8.7,1.2,11.6-0.2,10.1,12.3c-1,9.4-2.6,18.8-4.1,28.1c-1.1,6.6-2.5,13.2-4,19.8c-0.8,3.4,0,4.9,3.8,3.9
	c17.6-4.9,35.1-10.3,52.9-14.5c21.1-5,42.4-9.1,63.7-13.3c9.6-1.9,19.3-2.8,29-4.3c6.4-1,9.2-0.8,12.5,3.8
	c1.8,5.9,3.1,16.9,2.4,19.8c-0.7,4.4-8.1,3.3-12.9,4c-18.8,2.8-38,3.4-56.6,7.2c-28.2,5.9-56,13.7-84,20.8c-5,1.3-9.9,2.7-14.6,4.7
	c-1.7,0.7-3.4,3.1-3.9,5.1c-4,17.1-7.7,34.2-11.6,51.3c-6.4,27.8-12.2,56.8-18.5,84.6c-1.7,7.4-3,13.9-4.7,21.3
	c-1.2,4.9-3,10.7-4.8,14.7c-1.9,3.7-5.5,2.3-17.5,1.1C459.4,299.2,461.9,301.2,464.2,285.7z"/>
<path fill="#FFFFFF" stroke="#FFFFFF" stroke-width="2" stroke-miterlimit="10" d="M377.9,191.3c-1.9,10.3-3.9,20.9-5.9,31.6
	c-4.9,26.1-9.6,52.2-14.7,78.2c-0.9,4.7-1.5,11.9-8.2,11.4c-15.7-1.8-17.8-3.8-16.8-13.4c1.3-12.3,4.2-24.4,6.2-36.6
	c2.4-15,4.5-30,7.1-45c1.4-8.4,3.5-16.6,5.2-25c0.9-4.2,1.4-8.5,2.4-12.7c1.2-4.9,5.1-6.5,9.6-6.3c7.3,1,13.6,0.8,15.8,5.8
	C380,182.8,379.4,183.1,377.9,191.3z"/>
<path fill="#FFFFFF" stroke="#FFFFFF" stroke-width="2" stroke-miterlimit="10" d="M134,381.6c2.5-1.3,18.9-11.7,21.3-13.2
	c4-2.6,7.7-5.8,11.7-8.5c12.7-8.3,23.8-18.5,34-29.7c11.5-12.7,19.2-26.8,21.1-44.4c2.5-24-13.5-46.1-37.3-49.7
	c-8.6-1.3-17.2-2.3-25.9-3.5c0.6-0.7,1.5-1.7,2.4-2.6c10.6-10.7,21.7-21.1,31.8-32.3c6.7-7.4,12.8-15.5,17.7-24.1
	c2.5-4.4,2.4-10.5,2.6-15.9c0.1-2.8-1-6.1-2.7-8.3c-7.3-9.4-17.9-10.1-28.6-9.2c-23.1,1.9-44.1,10.1-64.3,21
	c-15.5,8.4-29.6,18.5-41.6,31.5c-2.2,2.4-4.5,3.5-8.2,2.9c-15.4-1.4-14.4,5.1-15.4,12c-1,6.3-1.1,12.8-2.1,19.1
	c-5.2,32.1-15.7,62.8-25.5,93.7c-3.3,10.4-6.5,20.7-9.6,31.1c-2.1,7.1-1.3,8.7,5.3,11.8c0.7,0.3,1.4,0.7,2,1.1
	c9.6,4,15.5,2.3,18.2-7.8c1.4-5.2,2.8-10.5,4.5-15.6c8-25.1,16.3-50.2,24.1-75.4c2.9-9.2,4.9-18.7,7-28.1
	c1.9-8.7,2.9-17.6,10.6-23.8c9.4-7.5,18-16,27.8-22.9c18.6-13.3,39.4-21.6,62.1-24.7c2-0.3,4-0.2,7.1-0.4c-1.5,2.5-2.1,4.1-3.2,5.4
	c-9.9,11.1-19.4,22.7-30,33.2c-15,14.9-30.9,28.9-46,43.6c-2.6,2.5-4.3,7-4.3,10.6c-0.1,7.7,9.9,19.9,16.7,15.8
	c0.7-0.3,7.4-3.4,8.1-3.7c16.1-8.9,33.4-10.5,51.3-8.1c14.3,1.9,22.4,13.4,18.6,28.3c-4.2,16.2-22.8,35.2-35.4,45.4
	c-10.2,7.7-19.9,17.3-32.2,23.1c-12.3,5.8-24.8,11-37.4,16c-8.6,3.4-17.2,5.3-26.3,0.1c-5.7-3.2-6.1-3.8-10.3,2.9
	c-0.2,0.5-1.6,3-2.1,3.8c-4.2,6.1-4.4,10.1,1.6,14.1c12.5,8.3,26.1,8.7,39.5,3.5C107,394.4,120.5,387.9,134,381.6z"/>
<path fill="#FFFFFF" stroke="#FFFFFF" stroke-width="2" stroke-miterlimit="10" d="M242.5,324.2c-9.4-2.5-13.7-3.4-11-14.4
	c3.9-15.3,7.4-30.8,10.6-46.3c2.3-11,3.6-22.1,5.7-33.2c1.6-8.8,1.3-15.4,16.5-12.8c2.3,0,5-1.4,6.8-3.1c9.2-8.6,17.9-17.7,27.3-26
	c4.6-4.1,9.8-7.5,16.3-8c3.6-0.5,9.7,6,12.6,9.9c3.8,4.5,0.8,7.9-1.5,9.7c-2.1,1.9-5.9,5.4-9,7.5c-14.6,10-27.3,21.9-35.9,37.5
	c-6.6,12-12.4,24.5-14.8,38.3c-1.9,11.1-4.9,22-6.6,33C258,326.3,253.1,325.8,242.5,324.2z"/>
<path fill="#FFFFFF" stroke="#FFFFFF" stroke-width="2" stroke-miterlimit="10" d="M851.6,122.4c-1.3,9.9-3.4,21.4-4.3,33
	c-2,24.6-2.8,49.3,5.8,73.1c0.8,2.2,3,3.9,4.6,5.8c2-1.9,5.1-3.4,6-5.7c4.4-11.5,8.1-23.3,12.2-34.9c8-22.2,16.2-44.4,24.2-66.6
	c0.8-2.3,1.5-4.8,2-7.2c1.8-9.7,14.3-14.5,22.1-8.5c8.4,6.4,9.6,13.2,5.7,23.1c-12.4,31.1-24.4,62.2-36.4,93.4
	c-6.7,17.2-13.4,34.4-19.8,51.8c-7.4,20.3-14.7,40.7-21.6,61.2c-6.9,20.3-13.2,40.9-19.9,61.3c-2.6,7.7-13.5,10.7-23.2,6.7
	c-5.1-2.1-7.2-12.2-4.8-18.5c5.3-13.6,10.1-27.5,14.9-41.3c6.2-17.9,12.2-35.9,18.5-53.7c3.4-9.5,7.3-18.8,10.9-28.3
	c0.3-0.8,0.1-2.7-0.4-2.9c-15.7-6.6-19.1-21.3-23-35.3c-8-28.5-8-57.6-4.6-86.7c1.2-10,3.4-20,6.5-29.6c2.3-7.2,7.9-9.8,13.8-8.5
	c6.9,1.5,10.8,6.6,10.9,14.1C851.7,119.1,851.6,119.9,851.6,122.4z"/>
<path fill="#FFFFFF" stroke="#FFFFFF" stroke-width="2" stroke-miterlimit="10" d="M747.8,238.7c1.7-13.8,4.2-32.1,6.3-50.5
	c1.9-17,3.6-33.9,5.2-50.9c0.1-0.6,1.2-7.4,1.1-8.1c0.2-3.5-3.3-2.1-3.7-1.7c-2,1.7-3.1,2.8-4.6,4.8c-8.4,11.4-17.3,22.5-24.6,34.5
	c-6,9.9-9.9,21.2-14.8,31.7c-9.4,20-15.3,41.3-22.5,62.1c-0.4,1.2-4.1,14.3-4.2,15.5c-2.3,8.1-6.6,5.2-10.6,3.5
	c-12.6-4.2-16.2-4.7-14.3-14.6c5.5-28.2,11.6-56.3,16.6-84.6c2.5-14,3.2-28.4,4.5-42.6c0.8-9.1,4.6-10.4,12.1-10.5
	c8.5-0.1,13,1.1,13.7,10.1c0.4,5.3,0,10.6,0,15.9c0,0.8,0.2,1.7,0.3,2.5c0.5-0.5,1.2-0.9,1.5-1.5c6.6-10.5,12.8-21.3,19.8-31.5
	c7.3-10.7,16.2-19.9,28.3-25.5c6.9-3.3,19.1,9.1,22.7,12.3c1.4,1.2,3.6,3.2,4.8,5.3c1.2,2,0.2,7.8-0.2,12.9c-2,24.1-4.5,48.1-7,72.1
	c-2.5,23.6-4.1,34.2-7.5,58.6c-1,7.8-1,15.7-7.3,14c-7.8-1.9-13.2-2.9-16.4-5.6c-2-2-1.1-6.2-0.3-12.5
	C747.5,244.8,745.5,265.4,747.8,238.7z"/>
<path fill="#FFFFFF" stroke="#FFFFFF" stroke-width="2" stroke-miterlimit="10" d="M637,129c4,4,1.5,21,1.5,21
	c-3.1,19.4-5.3,39-7.8,58.4c-2.3,17.5-4.6,35-6.7,52.5c-0.6,4.8-0.1,9.6-0.1,14.5c0.1,8.7-2.8,8.7-14.1,6.3
	c-13.2-3.9-12.8-3.3-12.8-11.8c-0.1-12.1,0.2-17.9,0.5-30c0-0.9,0.1-1.8,0.2-3.2c-0.6-0.2-1.4,2.1-1.8,2.9
	c-4.9,9.8-9.8,19.5-16.8,27.4c-9.7,11-24.2,14.8-34.7,0.5c-6.9-9.3-7.1-20.1-5.7-30.7c3.5-27.3,10.4-53.8,22.9-78.3
	c4.6-9,12-16.6,18.1-24.9c2-2.7,6.7-6.5,12.2-9.1c7.9-3.3,29.4-0.3,29.4-0.3S633,125,637,129z M609.8,156.3c0.4-4.1-3.4-6.3-6.9-6.4
	c-4.7-0.3-7.8,0.5-8.8,1.6c-10.1,11-16,25.5-20.8,39.2c-5.9,17.1-11.5,34.8-12.3,49c0,2.4-0.6,6.4,4.3,6.3c2-0.2,2.5-0.6,3.3-1.3
	c8.2-6.9,24.5-34.9,30.7-52.4c3.3-8.9,3.9-8.4,6.9-17.4C609.1,166.4,609.2,168,609.8,156.3z"/>
<path fill="#FFFFFF" stroke="#FFFFFF" stroke-width="4" stroke-miterlimit="10" d="M504.3,367c-2,8.1-4,15.6-5.5,23.7
	c-0.5,5.3-1.4,11.6-0.1,12.6c0.8,0.8,7.2,1.8,7.8,0.8c1.2-0.9,1-2.4,1.2-5.2c0-2.5,0.3-4.8,0.7-7.5c1.6-7.5,3.1-15,5.1-22.4
	c0.5-1.8,1.7-4,3.2-4.8c7.2-3.8,14.4-7.6,21.9-10.8c7.1-3,14.4-5.3,21.7-7.8c1.4-0.5,3.2-0.9,4.8-1.1c2-0.5,0.1,3.9-0.3,5.4
	c-1.1,3.6-2.6,7-3.9,10.6c-3,8.1-6.1,16.2-9.6,25.7c-0.9,2-1.7,3.6-2.3,7.1c-0.7,3.5,0,4.2,1,4.7c1.1,0.5,4.4,1.5,6.1,0.9
	c1-0.3,1.7-2.4,2.3-3.5c2.1-4.2,2.8-7.5,4.4-11.9c4.7-12.7,9.1-25.6,13.7-38.4c3.2-9.1,6.5-18.1,9.8-27.2c1.1-2.9,1.2-4.9-2.7-6.7
	c-2.6-1.6-7-3.3-8.2,0.4c-1.3,2.8-2.4,6.8-3.2,9.6c-3.6,11-3,10.9-5.2,11.5c-3.8,1.6-5.6,1.9-8.6,3.2c-8.6,3.5-17.4,6.8-26.1,10.2
	c-3.4,1.3-6.7,2.5-10.2,3.7c-1.9,0.6-2.8,0.3-2.4-2.2c0.6-5.5,1.7-9.6,2.3-15c0.4-3.4,1-7.1,1.4-10.8c0.1-1,0.2-2.3-0.7-3.2
	c-1-1.6-6.5-1.2-7.2-0.9c-2.9,1.5-2.9,3.7-3.2,6.5c-0.9,8.1-2.7,17.6-4,25.6C508.4,349.8,505.3,363.4,504.3,367z"/>
<path fill="#FFFFFF" stroke="#FFFFFF" stroke-width="4" stroke-miterlimit="10" d="M698.3,338c-4.7,12.3-8.3,6.1-9,3.6
	c-1.4-5-3.1-1.8-4.1-0.5c-4.4,5.8-9.2,11.5-12.6,17.8c-2.8,5.1-4.3,10.3-5.7,16c-1.2,4.7,0.1,9.9,4.2,13c4.2,3.2,8.8,3.6,13.4,1
	c8.1-4.7,15.2-10.4,18.2-19.8c0.3-1,0.7-2.7,0.1-3.2c-0.3-0.4-2.2,0.1-3.2,0.5c-2.3,0.9-4.5,2-6.7,2.8c-1.5,0.6-3.3,1.4-4.6,1.6
	c-1.4,0.2-2.1,0.5-3.9-3.5c-2.2-4.8-0.4-5.6,1.3-6.6c6.7-3.7,13.7-7,21.5-7.8c6.7-0.7,8.9,2.9,6.9,9.4c-2.2,7.1-5.2,13.8-9.2,20
	c-5,7.7-11.2,14.3-20.3,16.9c-8.1,2.3-16.7,2-23.1-4.1c-4.5-4.3-6.6-10.5-5.9-17c1.5-13.2,6.9-24.7,15-35c3-3.8,5.9-7.8,9.1-11.5
	c3.5-4.2,7.5-7.8,13.4-8.1c6.1,0.2,9.1,3.7,7.2,9.5C699.7,334.7,699,336.3,698.3,338z"/>
<path fill="#FFFFFF" stroke="#FFFFFF" stroke-width="4" stroke-miterlimit="10" d="M769.4,336.5c-4.7,12.3-8.3,6.1-9,3.6
	c-1.4-5-3.1-1.8-4.1-0.5c-4.4,5.8-9.2,11.5-12.6,17.8c-2.8,5.1-4.3,10.3-5.7,16c-1.2,4.7,0.1,9.9,4.2,13c4.2,3.2,8.8,3.6,13.4,1
	c8.1-4.7,15.2-10.4,18.2-19.8c0.3-1,0.7-2.7,0.1-3.2c-0.3-0.4-2.2,0.1-3.2,0.5c-2.3,0.9-4.5,2-6.7,2.8c-1.5,0.6-3.3,1.4-4.6,1.6
	c-1.4,0.2-2.1,0.5-3.9-3.5c-2.2-4.8-0.4-5.6,1.3-6.6c6.7-3.7,13.7-7,21.5-7.8c6.7-0.7,8.9,2.9,6.9,9.4c-2.2,7.1-5.2,13.8-9.2,20
	c-5,7.7-11.2,14.3-20.3,16.9c-8.1,2.3-16.7,2-23.1-4.1c-4.5-4.3-6.6-10.5-5.9-17c1.5-13.2,6.9-24.7,15-35c3-3.8,5.9-7.8,9.1-11.5
	c3.5-4.2,7.5-7.8,13.4-8.1c6.1,0.2,9.1,3.7,7.2,9.5C770.8,333.2,770.1,334.8,769.4,336.5z"/>
<path fill="#FFFFFF" stroke="#FFFFFF" stroke-width="4" stroke-miterlimit="10" d="M633.1,382.9c-5.1,12.4-10.3,18.2-22.3,17.5
	c-5.6,0.1-14-3.8-17.5-9.8c-3.9-5.7-3.8-12.4-1.2-20.2c3.7-11.4,9.1-21.7,16.5-31c3.9-4.9,8.8-8.9,14.8-11c5.7-2,12.5,0,15.7,3.2
	c1.7,1.2,2.3,5.1,2.2,6.5c0.3,4.8,0.2,6.8,0,11.7C640.8,361.1,638.3,370.6,633.1,382.9z M604.9,363.2c-2.6,7.4-4.9,11.7-3.4,18
	c0.6,2.4,3.2,5.8,5.1,7.1c2,1.3,5.2,1.8,7.6,1.3c2.8-0.2,6.1-3.2,8.2-6.3s2.6-4.7,2.6-4.7c4.9-9.9,5.7-16.5,7.2-27.8
	c0.4-2.9,0.9-9.9-2.9-11.7c-3.9-1.8-7-0.1-10.4,2.7C619,341.9,613.2,345.7,604.9,363.2z"/>
</svg>
