<?xml version="1.0" encoding="utf-8"?>
<!-- Generator: Adobe Illustrator 18.1.1, SVG Export Plug-In . SVG Version: 6.00 Build 0)  -->
<!DOCTYPE svg PUBLIC "-//W3C//DTD SVG 1.1//EN" "http://www.w3.org/Graphics/SVG/1.1/DTD/svg11.dtd">
<svg version="1.1" id="Layer_1" xmlns="http://www.w3.org/2000/svg" xmlns:xlink="http://www.w3.org/1999/xlink" x="0px" y="0px"
	 viewBox="0 0 1430.3 673.4" enable-background="new 0 0 1430.3 673.4" xml:space="preserve">
<path fill="#945B48" d="M706.4,404c3.2-16.7,6.7-31.7,10.1-47.3c3.2-14.3,7.3-28.5,10.8-42.7c3.6-14.8,6.8-29.7,10.1-44.5
	c1.2-5.4,1.9-11,3-16.4c0.6-2.8-0.1-3.8-3.1-3c-12.3,3.4-24.6,6.5-36.8,10.1c-1.8,0.6-3.9,3.2-4.4,5.2c-3.3,13.7-6.1,27.6-9.1,41.4
	c-3.7,17.2-7.8,34.4-11.2,51.7c-3.5,18.1-6.5,36.3-9.6,54.5c-1.4,8.2-3.3,10.1-13.1,8.6c-4.5-0.7-10.3-0.2-9.6-6.5
	c1.3-10.6,2.3-21.3,4-31.8c2.5-15.6,5.2-31.2,8.2-46.7c1.9-9.9,4.3-19.6,6.4-29.5c2.4-11.5,4.6-23.1,7-34.6c0.7-3.2-0.4-3.7-3.4-3
	c-20.1,4.5-32.1,6.8-52.3,11c-8.3,1.7-17.8,7.2-21.8-6.6c-1.6-5-2.8-11.9-2.8-11.9c-0.4-3.3,5.3-4.9,8.3-5.6
	c26.8-6,45.5-9.4,72.4-14.9c4.7-1,6.9-3.2,8.3-8c3-10.5,6.5-21,10.4-31.2c3.3-10,5.5-7.9,13.2-5.7c7.7,1.5,9.6,0.5,7.4,10.7
	c-0.9,6.9-3,13.6-4.5,20.3c-0.3,1.3-0.3,2.7-0.4,4c1.3,0,2.7,0.4,4,0.1c11.3-2.9,22.4-6.2,33.8-8.8c5.9-1.3,6.9-5.6,7.8-10.2
	c2.7-14.8,5.2-29.6,8-44.4c0.8-4.1,2-8,3.4-12c2.8-11.8,4.4-9,12.9-8c8.7,1.2,11.6-0.2,10.1,12.3c-1,9.4-2.6,18.8-4.1,28.1
	c-1.1,6.6-2.5,13.2-4,19.8c-0.8,3.4,0,4.9,3.8,3.9c17.6-4.9,35.1-10.3,52.9-14.5c21.1-5,42.4-9.1,63.7-13.3c9.6-1.9,19.3-2.8,29-4.3
	c6.4-1,9.2-0.8,12.5,3.8c1.8,5.9,3.1,16.9,2.4,19.8c-0.7,4.4-8.1,3.3-12.9,4c-18.8,2.8-38,3.4-56.6,7.2c-28.2,5.9-56,13.7-84,20.8
	c-5,1.3-9.9,2.7-14.6,4.7c-1.7,0.7-3.4,3.1-3.9,5.1c-4,17.1-7.7,34.2-11.6,51.3c-6.4,27.8-12.2,56.8-18.5,84.6
	c-1.7,7.4-3,13.9-4.7,21.3c-1.2,4.9-3,10.7-4.8,14.7c-1.9,3.7-5.5,2.3-17.5,1.1C701.5,417.4,704.1,419.5,706.4,404z"/>
<path fill="#945B48" d="M620,309.5c-1.9,10.3-3.9,20.9-5.9,31.6c-4.9,26.1-9.6,52.2-14.7,78.2c-0.9,4.7-1.5,11.9-8.2,11.4
	c-15.7-1.8-17.8-3.8-16.8-13.4c1.3-12.3,4.2-24.4,6.2-36.6c2.4-15,4.5-30,7.1-45c1.4-8.4,3.5-16.6,5.2-25c0.9-4.2,1.4-8.5,2.4-12.7
	c1.2-4.9,5.1-6.5,9.6-6.3c7.3,1,13.6,0.8,15.8,5.8C622.2,301.1,621.6,301.4,620,309.5z"/>
<path fill="#945B48" d="M376.2,499.9c2.5-1.3,18.9-11.7,21.3-13.2c4-2.6,7.7-5.8,11.7-8.5c12.7-8.3,23.8-18.5,34-29.7
	c11.5-12.7,19.2-26.8,21.1-44.4c2.5-24-13.5-46.1-37.3-49.7c-8.6-1.3-17.2-2.3-25.9-3.5c0.6-0.7,1.5-1.7,2.4-2.6
	c10.6-10.7,21.7-21.1,31.8-32.3c6.7-7.4,12.8-15.5,17.7-24.1c2.5-4.4,2.4-10.5,2.6-15.9c0.1-2.8-1-6.1-2.7-8.3
	c-7.3-9.4-17.9-10.1-28.6-9.2c-23.1,1.9-44.1,10.1-64.3,21c-15.5,8.4-29.6,18.5-41.6,31.5c-2.2,2.4-4.5,3.5-8.2,2.9
	c-15.4-1.4-14.4,5.1-15.4,12c-1,6.3-1.1,12.8-2.1,19.1c-5.2,32.1-15.7,62.8-25.5,93.7c-3.3,10.4-6.5,20.7-9.6,31.1
	c-2.1,7.1-1.3,8.7,5.3,11.8c0.7,0.3,1.4,0.7,2,1.1c9.6,4,15.5,2.3,18.2-7.8c1.4-5.2,2.8-10.5,4.5-15.6c8-25.1,16.3-50.2,24.1-75.4
	c2.9-9.2,4.9-18.7,7-28.1c1.9-8.7,2.9-17.6,10.6-23.8c9.4-7.5,18-16,27.8-22.9c18.6-13.3,39.4-21.6,62.1-24.7c2-0.3,4-0.2,7.1-0.4
	c-1.5,2.5-2.1,4.1-3.2,5.4c-9.9,11.1-19.4,22.7-30,33.2c-15,14.9-30.9,28.9-46,43.6c-2.6,2.5-4.3,7-4.3,10.6
	c-0.1,7.7,9.9,19.9,16.7,15.8c0.7-0.3,7.4-3.4,8.1-3.7c16.1-8.9,33.4-10.5,51.3-8.1c14.3,1.9,22.4,13.4,18.6,28.3
	c-4.2,16.2-22.8,35.2-35.4,45.4c-10.2,7.7-19.9,17.3-32.2,23.1c-12.3,5.8-24.8,11-37.4,16c-8.6,3.4-17.2,5.3-26.3,0.1
	c-5.7-3.2-6.1-3.8-10.3,2.9c-0.2,0.5-1.6,3-2.1,3.8c-4.2,6.1-4.4,10.1,1.6,14.1c12.5,8.3,26.1,8.7,39.5,3.5
	C349.1,512.6,362.6,506.2,376.2,499.9z"/>
<path fill="#945B48" d="M484.7,442.5c-9.4-2.5-13.7-3.4-11-14.4c3.9-15.3,7.4-30.8,10.6-46.3c2.3-11,3.6-22.1,5.7-33.2
	c1.6-8.8,1.3-15.4,16.5-12.8c2.3,0,5-1.4,6.8-3.1c9.2-8.6,17.9-17.7,27.3-26c4.6-4.1,9.8-7.5,16.3-8c3.6-0.5,9.7,6,12.6,9.9
	c3.8,4.5,0.8,7.9-1.5,9.7c-2.1,1.9-5.9,5.4-9,7.5c-14.6,10-27.3,21.9-35.9,37.5c-6.6,12-12.4,24.5-14.8,38.3
	c-1.9,11.1-4.9,22-6.6,33C500.2,444.6,495.2,444,484.7,442.5z"/>
<path fill="#945B48" d="M1093.8,240.7c-1.3,9.9-3.4,21.4-4.3,33c-2,24.6-2.8,49.3,5.8,73.1c0.8,2.2,3,3.9,4.6,5.8
	c2-1.9,5.1-3.4,6-5.7c4.4-11.5,8.1-23.3,12.2-34.9c8-22.2,16.2-44.4,24.2-66.6c0.8-2.3,1.5-4.8,2-7.2c1.8-9.7,14.3-14.5,22.1-8.5
	c8.4,6.4,9.6,13.2,5.7,23.1c-12.4,31.1-24.4,62.2-36.4,93.4c-6.7,17.2-13.4,34.4-19.8,51.8c-7.4,20.3-14.7,40.7-21.6,61.2
	c-6.9,20.3-13.2,40.9-19.9,61.3c-2.6,7.7-13.5,10.7-23.2,6.7c-5.1-2.1-7.2-12.2-4.8-18.5c5.3-13.6,10.1-27.5,14.9-41.3
	c6.2-17.9,12.2-35.9,18.5-53.7c3.4-9.5,7.3-18.8,10.9-28.3c0.3-0.8,0.1-2.7-0.4-2.9c-15.7-6.6-19.1-21.3-23-35.3
	c-8-28.5-8-57.6-4.6-86.7c1.2-10,3.4-20,6.5-29.6c2.3-7.2,7.9-9.8,13.8-8.5c6.9,1.5,10.8,6.6,10.9,14.1
	C1093.8,237.4,1093.8,238.2,1093.8,240.7z"/>
<path fill="#945B48" d="M989.9,356.9c1.7-13.8,4.2-32.1,6.3-50.5c1.9-17,3.6-33.9,5.2-50.9c0.1-0.6,1.2-7.4,1.1-8.1
	c0.2-3.5-3.3-2.1-3.7-1.7c-2,1.7-3.1,2.8-4.6,4.8c-8.4,11.4-17.3,22.5-24.6,34.5c-6,9.9-9.9,21.2-14.8,31.7
	c-9.4,20-15.3,41.3-22.5,62.1c-0.4,1.2-4.1,14.3-4.2,15.5c-2.3,8.1-6.6,5.2-10.6,3.5c-12.6-4.2-16.2-4.7-14.3-14.6
	c5.5-28.2,11.6-56.3,16.6-84.6c2.5-14,3.2-28.4,4.5-42.6c0.8-9.1,4.6-10.4,12.1-10.5c8.5-0.1,13,1.1,13.7,10.1
	c0.4,5.3,0,10.6,0,15.9c0,0.8,0.2,1.7,0.3,2.5c0.5-0.5,1.2-0.9,1.5-1.5c6.6-10.5,12.8-21.3,19.8-31.5c7.3-10.7,16.2-19.9,28.3-25.5
	c6.9-3.3,19.1,9.1,22.7,12.3c1.4,1.2,3.6,3.2,4.8,5.3c1.2,2,0.2,7.8-0.2,12.9c-2,24.1-4.5,48.1-7,72.1c-2.5,23.6-4.1,34.2-7.5,58.6
	c-1,7.8-1,15.7-7.3,14c-7.8-1.9-13.2-2.9-16.4-5.6c-2-2-1.1-6.2-0.3-12.5C989.7,363.1,987.7,383.6,989.9,356.9z"/>
<path fill="#945B48" d="M879.1,247.2c4,4,1.5,21,1.5,21c-3.1,19.4-5.3,39-7.8,58.4c-2.3,17.5-4.6,35-6.7,52.5
	c-0.6,4.8-0.1,9.6-0.1,14.5c0.1,8.7-2.8,8.7-14.1,6.3c-13.2-3.9-12.8-3.3-12.8-11.8c-0.1-12.1,0.2-17.9,0.5-30
	c0-0.9,0.1-1.8,0.2-3.2c-0.6-0.2-1.4,2.1-1.8,2.9c-4.9,9.8-9.8,19.5-16.8,27.4c-9.7,11-24.2,14.8-34.7,0.5
	c-6.9-9.3-7.1-20.1-5.7-30.7c3.5-27.3,10.4-53.8,22.9-78.3c4.6-9,12-16.6,18.1-24.9c2-2.7,6.7-6.5,12.2-9.1
	c7.9-3.3,29.4-0.3,29.4-0.3S875.1,243.2,879.1,247.2z M852,274.6c0.4-4.1-3.4-6.3-6.9-6.4c-4.7-0.3-7.8,0.5-8.8,1.6
	c-10.1,11-16,25.5-20.8,39.2c-5.9,17.1-11.5,34.8-12.3,49c0,2.4-0.6,6.4,4.3,6.3c2-0.2,2.5-0.6,3.3-1.3c8.2-6.9,24.5-34.9,30.7-52.4
	c3.3-8.9,3.9-8.4,6.9-17.4C851.2,284.6,851.4,286.3,852,274.6z"/>
<path fill="#945B48" d="M746.5,485.2c-2,8.1-4,15.6-5.5,23.7c-0.5,5.3-1.4,11.6-0.1,12.6c0.8,0.8,7.2,1.8,7.8,0.8
	c1.2-0.9,1-2.4,1.2-5.2c0-2.5,0.3-4.8,0.7-7.5c1.6-7.5,3.1-15,5.1-22.4c0.5-1.8,1.7-4,3.2-4.8c7.2-3.8,14.4-7.6,21.9-10.8
	c7.1-3,14.4-5.3,21.7-7.8c1.4-0.5,3.2-0.9,4.8-1.1c2-0.5,0.1,3.9-0.3,5.4c-1.1,3.6-2.6,7-3.9,10.6c-3,8.1-6.1,16.2-9.6,25.7
	c-0.9,2-1.7,3.6-2.3,7.1c-0.7,3.5,0,4.2,1,4.7c1.1,0.5,4.4,1.5,6.1,0.9c1-0.3,1.7-2.4,2.3-3.5c2.1-4.2,2.8-7.5,4.4-11.9
	c4.7-12.7,9.1-25.6,13.7-38.4c3.2-9.1,6.5-18.1,9.8-27.2c1.1-2.9,1.2-4.9-2.7-6.7c-2.6-1.6-7-3.3-8.2,0.4c-1.3,2.8-2.4,6.8-3.2,9.6
	c-3.6,11-3,10.9-5.2,11.5c-3.8,1.6-5.6,1.9-8.6,3.2c-8.6,3.5-17.4,6.8-26.1,10.2c-3.4,1.3-6.7,2.5-10.2,3.7
	c-1.9,0.6-2.8,0.3-2.4-2.2c0.6-5.5,1.7-9.6,2.3-15c0.4-3.4,1-7.1,1.4-10.8c0.1-1,0.2-2.3-0.7-3.2c-1-1.6-6.5-1.2-7.2-0.9
	c-2.9,1.5-2.9,3.7-3.2,6.5c-0.9,8.1-2.7,17.6-4,25.6C750.6,468.1,747.4,481.7,746.5,485.2z"/>
<path fill="#945B48" d="M940.5,456.3c-4.7,12.3-8.3,6.1-9,3.6c-1.4-5-3.1-1.8-4.1-0.5c-4.4,5.8-9.2,11.5-12.6,17.8
	c-2.8,5.1-4.3,10.3-5.7,16c-1.2,4.7,0.1,9.9,4.2,13c4.2,3.2,8.8,3.6,13.4,1c8.1-4.7,15.2-10.4,18.2-19.8c0.3-1,0.7-2.7,0.1-3.2
	c-0.3-0.4-2.2,0.1-3.2,0.5c-2.3,0.9-4.5,2-6.7,2.8c-1.5,0.6-3.3,1.4-4.6,1.6c-1.4,0.2-2.1,0.5-3.9-3.5c-2.2-4.8-0.4-5.6,1.3-6.6
	c6.7-3.7,13.7-7,21.5-7.8c6.7-0.7,8.9,2.9,6.9,9.4c-2.2,7.1-5.2,13.8-9.2,20c-5,7.7-11.2,14.3-20.3,16.9c-8.1,2.3-16.7,2-23.1-4.1
	c-4.5-4.3-6.6-10.5-5.9-17c1.5-13.2,6.9-24.7,15-35c3-3.8,5.9-7.8,9.1-11.5c3.5-4.2,7.5-7.8,13.4-8.1c6.1,0.2,9.1,3.7,7.2,9.5
	C941.8,452.9,941.1,454.6,940.5,456.3z"/>
<path fill="#945B48" d="M1011.6,454.8c-4.7,12.3-8.3,6.1-9,3.6c-1.4-5-3.1-1.8-4.1-0.5c-4.4,5.8-9.2,11.5-12.6,17.8
	c-2.8,5.1-4.3,10.3-5.7,16c-1.2,4.7,0.1,9.9,4.2,13c4.2,3.2,8.8,3.6,13.4,1c8.1-4.7,15.2-10.4,18.2-19.8c0.3-1,0.7-2.7,0.1-3.2
	c-0.3-0.4-2.2,0.1-3.2,0.5c-2.3,0.9-4.5,2-6.7,2.8c-1.5,0.6-3.3,1.4-4.6,1.6c-1.4,0.2-2.1,0.5-3.9-3.5c-2.2-4.8-0.4-5.6,1.3-6.6
	c6.7-3.7,13.7-7,21.5-7.8c6.7-0.7,8.9,2.9,6.9,9.4c-2.2,7.1-5.2,13.8-9.2,20c-5,7.7-11.2,14.3-20.3,16.9c-8.1,2.3-16.7,2-23.1-4.1
	c-4.5-4.3-6.6-10.5-5.9-17c1.5-13.2,6.9-24.7,15-35c3-3.8,5.9-7.8,9.1-11.5c3.5-4.2,7.5-7.8,13.4-8.1c6.1,0.2,9.1,3.7,7.2,9.5
	C1012.9,451.4,1012.2,453.1,1011.6,454.8z"/>
<path fill="#945B48" d="M875.3,501.1c-5.1,12.4-10.3,18.2-22.3,17.5c-5.6,0.1-14-3.8-17.5-9.8c-3.9-5.7-3.8-12.4-1.2-20.2
	c3.7-11.4,9.1-21.7,16.5-31c3.9-4.9,8.8-8.9,14.8-11c5.7-2,12.5,0,15.7,3.2c1.7,1.2,2.3,5.1,2.2,6.5c0.3,4.8,0.2,6.8,0,11.7
	C883,479.4,880.4,488.9,875.3,501.1z M847.1,481.5c-2.6,7.4-4.9,11.7-3.4,18c0.6,2.4,3.2,5.8,5.1,7.1c2,1.3,5.2,1.8,7.6,1.3
	c2.8-0.2,6.1-3.2,8.2-6.3s2.6-4.7,2.6-4.7c4.9-9.9,5.7-16.5,7.2-27.8c0.4-2.9,0.9-9.9-2.9-11.7c-3.9-1.8-7-0.1-10.4,2.7
	C861.2,460.2,855.3,464,847.1,481.5z"/>
<g>
	<path fill="#945B48" d="M1313.9,298.2c-1.9,5.1-2.4,12.2-5.6,13.7c-4.7,2.2-11.2,7.2-16.9,0.8c-1.4-1.6-2.6-4-2.7-6.1
		c-0.1-1.2,2.2-2.7,3.7-3.7c4.5-3.2,9.2-6.4,13.9-9.4c0.8-0.5,2.4-1,2.8-0.6C1310.7,294.4,1312.1,296.3,1313.9,298.2z"/>
	<path fill="#945B48" d="M1345.1,335.5c-4.1,3.3-6.6,6.1-9.7,7.2c-1.2,0.4-5.7-4.3-5.4-5c1.8-3.7,4.7-6.9,7.3-10.3
		C1339.3,329.6,1341.4,331.8,1345.1,335.5z"/>
	<path fill="#945B48" d="M1231.5,260c-2-2.4-4.8-4.2-4.7-5.7c0.2-2.8,2.2-5.4,3.5-8.1c2.3,3.3,4.6,6.6,6.8,10
		C1235.7,257.2,1234.2,258.2,1231.5,260z"/>
	<path fill="#945B48" d="M1368.9,382.3c-1.5,1.3-2.4,2.7-3.3,2.7c-0.9,0-1.8-1.5-2.7-2.3c0.9-0.9,1.7-2.2,2.7-2.4
		C1366.3,380.1,1367.4,381.4,1368.9,382.3z"/>
	<path fill="#945B48" d="M1221.2,232.9c-1.8,2.4-2.4,3.2-3,4.1c-0.7-1-1.7-1.9-1.9-3c-0.1-0.7,0.9-2.3,1.4-2.3
		C1218.8,231.7,1220,232.4,1221.2,232.9z"/>
	<path fill="#945B48" d="M1240,265.5c1.6-0.9,2.5-1.8,3.2-1.7c0.8,0.1,1.6,1,2.2,1.7c0.1,0.1-0.9,1.7-1.3,1.6
		C1243,267,1241.9,266.3,1240,265.5z"/>
	<path fill="#945B48" d="M1362.3,374.3c0.3,0.2,0.7,0.4,1,0.5c-0.2,0.3-0.4,0.8-0.7,0.9c-0.2,0.1-0.6-0.3-0.9-0.5
		C1361.8,375,1362,374.7,1362.3,374.3z"/>
	<path fill="#945B48" d="M1341.1,372.3c-0.3-0.2-0.6-0.4-0.9-0.6c0.2-0.3,0.5-0.5,0.8-0.7c0.1,0,0.5,0.2,0.4,0.3
		C1341.4,371.6,1341.2,371.9,1341.1,372.3z"/>
	<path fill="#945B48" d="M1346.5,371.6c0.2,0.1,0.4,0.1,0.5,0.3c0.1,0.1,0,0.4,0,0.6c-0.3-0.1-0.6-0.2-0.9-0.4
		C1346.2,372,1346.3,371.8,1346.5,371.6z"/>
	<polygon fill="#945B48" points="1224.5,235.8 1225,235.8 1224.8,236.2 	"/>
	<g>
		<path fill="#945B48" d="M931.7,519.3c-8.5-3.9-8.5-6.3,0-17.4C931.7,507.7,931.7,513.5,931.7,519.3z"/>
		<path fill="#945B48" d="M641.7,344.9c-4.3-3.1-10.6-5.3-12.2-9.5c-1.1-2.8,4.2-8.2,6.7-12.4c0.2-0.3,1.1-0.3,1.2-0.5
			c2.1-8.2,6.5-11.4,14.6-6.9c0.2,0.1,1.2-1.1,1.7-1.7c1.3-1.4,2.5-2.9,3.8-4.4c0.8,2.8,2.8,6.1,2.1,8.4c-1.6,4.7-4.7,8.9-7.1,13.4
			c-1.6,3-2.8,6.4-4.8,9.1c-1.4,1.9-3.8,2.9-5.8,4.3C641.8,344.8,641.7,344.9,641.7,344.9z M649.9,320.9l0.2,0.3l0.2-0.3
			L649.9,320.9z"/>
		<path fill="#945B48" d="M465.5,236.2c0.2-8,4.7-12.5,10.7-13.7c3.8-0.8,10.2,1.3,12.1,4.2c2.2,3.4,0.8,9.2,0.9,14
			c0,1.5-0.3,3.1-0.5,4.7c-0.5,4.1-1.2,6.9-6.4,3.9c-3.3-1.9-8-1.8-10.9-4.1C468.6,243.3,467.3,239.3,465.5,236.2z"/>
		<path fill="#945B48" d="M854.9,452.9c7.1,0.2,7.8,1.1,6.5,5.9c-0.2,0.7,0.4,2.2,1.1,2.5c5,2.7,3.2,6.3,0.9,9.4
			c-2.7,3.6-5.9,6.6-3.5,11.7c0.3,0.6-0.7,2.6-1.2,2.6c-1.1,0-3.1-0.5-3.3-1.2c-1.8-6.7-3.6-13.4-4.7-20.2c-0.5-2.8,0.5-5.9,1.5-8.7
			C852.6,453.8,854.6,453.1,854.9,452.9z M859.1,471l0.1-0.4l-0.4,0.2L859.1,471z"/>
		<path fill="#945B48" d="M907.5,462.9c-0.8,12.5-3.4,16.1-10.6,14.8c-3.2-0.6-8-4.1-8.3-6.7c-0.9-6.8,6.7-14.3,12.4-13.1
			C903.8,458.5,906.1,461.8,907.5,462.9z"/>
		<path fill="#945B48" d="M533.1,269.7c0.1,0.6,0.3,1.3,0.4,1.9c-5.1-0.9-11.2-0.5-14.8-3.3c-1.9-1.5-1.2-10,1.2-12.7
			c3.4-3.9,9.1-4.2,12.7,2C535.1,261.8,539.8,265.4,533.1,269.7c-0.9-0.1-1.7-0.2-2.6-0.4C531.4,269.4,532.2,269.5,533.1,269.7z"/>
		<path fill="#945B48" d="M648.5,218.7c-1.7-1.9-3.4-3.7-5.1-5.6c2.9-1.3,6.5-4.3,8.6-3.5c4.8,1.9,9.1,5.5,13.1,8.9
			c0.6,0.5-0.9,5.6-2,5.9c-4.4,0.9-9,0.9-13.5,0.5C649.1,224.9,648.8,220.8,648.5,218.7c0.1-0.1,0.2-0.2,0.4-0.4
			C648.7,218.5,648.6,218.6,648.5,218.7z"/>
		<path fill="#945B48" d="M788.5,259.7c2.2,4,4.5,6.6,4,7.5c-2.1,3.3-5.1,6-7.8,8.9c-2.2-2.2-4.3-4.4-6.5-6.6
			C781.1,266.6,784.1,263.9,788.5,259.7z"/>
		<path fill="#945B48" d="M731,205.6c-2.8,3.3-4.6,5.5-6.5,7.7c-2.5-2.9-4.9-5.7-7.4-8.6c2.4-1.8,4.6-4.9,7.2-5.1
			C726.1,199.4,728.3,203,731,205.6z"/>
		<path fill="#945B48" d="M264.4,362.6c-3.3-2.8-5.5-4.6-7.7-6.4c3.6-2.6,7-5.4,10.8-7.7c0.5-0.3,4.2,3.3,3.9,3.7
			C269.6,355.7,267.1,358.8,264.4,362.6z"/>
		<path fill="#945B48" d="M66.8,178.3c-1.9-4.6-3.6-7.1-3.9-9.7c-0.1-1.3,3.1-4.2,3.4-4c3,1.8,5.7,4.1,8.5,6.3
			C72.8,172.8,70.8,174.7,66.8,178.3z"/>
		<path fill="#945B48" d="M534,418.7c-2.4-2.4-4.1-4-5.7-5.7c2.8-1.6,5.4-3.9,8.3-4.5c1.5-0.3,3.7,2.2,5.6,3.5
			C539.8,414,537.4,415.9,534,418.7z"/>
		<path fill="#945B48" d="M836.1,593.8c-1.2-2.5-3-4.6-3-6.7c0-1.4,3.4-4.2,3.8-4c2.9,1.7,5.4,4.1,8,6.3
			C842.4,590.6,839.9,591.9,836.1,593.8z"/>
		<path fill="#945B48" d="M890.6,622.6c-2.9,1.7-4.9,3.8-7,3.8c-1.6,0-3.3-2.5-5-3.9c2.3-1.9,4.5-4,7-5.4
			C886,616.9,888.3,619.9,890.6,622.6z"/>
		<path fill="#945B48" d="M768.1,512.8c-0.4,5-0.7,8.3-1,11.6c-2.5-3-5-5.9-7.4-8.9c2.2-1.7,4.3-3.4,6.5-5.1
			C767.2,511.6,768.2,512.9,768.1,512.8z"/>
		<path fill="#945B48" d="M600.3,418.6c0.2,1.8,1.2,4.3,0.4,5.3c-1.1,1.4-3.6,2.2-5.5,2.2c-1,0-2.4-2.3-2.7-3.7
			c-0.3-1.2,0.8-2.7,1.3-4.1c1.1,0.4,2.1,1.1,3.2,1.2c1,0.1,2-0.4,3-0.6C600,418.8,600.3,418.6,600.3,418.6z"/>
		<path fill="#945B48" d="M107.5,249.5c-1-1.7-2-3.4-3-5.2c2-0.7,4.1-2,6.1-1.9c1.6,0.1,3.1,2.1,4.6,3.2c-1.7,1.3-3.3,2.6-5,3.9
			c0,0,0.1,0,0.1,0c-0.5,0.1-1,0.2-1.4,0.2C108.4,249.7,108,249.6,107.5,249.5z"/>
		<path fill="#945B48" d="M657.5,415.3c-0.8-3.1-1.6-4.8-1.5-6.5c0.1-0.9,2-2.6,2.5-2.4c1.7,0.7,3,2,4.5,3.2
			C661.5,411.1,660.1,412.6,657.5,415.3z"/>
		<path fill="#945B48" d="M579.9,293.6c-1.9,1.3-3,2.6-4.3,2.8c-0.6,0.1-1.6-1.6-2.4-2.5c1.1-0.9,2.1-2.1,3.4-2.5
			C577.2,291.2,578.3,292.5,579.9,293.6z"/>
		<path fill="#945B48" d="M184,284.2c4.2-0.5,5.8-1,7.4-0.7c1,0.2,1.8,1.4,2.7,2.2c-1.5,0.3-3,0.8-4.5,0.8
			C188.5,286.4,187.4,285.6,184,284.2z"/>
		<path fill="#945B48" d="M483.8,263.9c0.4,1.5,1.1,3,0.9,4.4c-0.1,0.7-2,1.9-2.6,1.7c-1.4-0.5-2.6-1.7-3.9-2.6
			c1.1-0.5,2.1-1,3.2-1.6C482.2,265.2,483,264.6,483.8,263.9z"/>
		<path fill="#945B48" d="M107.5,249.5c0.4,0.1,0.9,0.2,1.3,0.3c0.5-0.1,1-0.2,1.4-0.2c0,0-0.1,0-0.1,0c-0.3,1.6-0.7,3.3-1,4.9
			c-1-0.3-2-0.6-3-0.9C106.6,252.2,107.1,250.9,107.5,249.5z"/>
		<path fill="#945B48" d="M497.4,301.6c2.1,2.4,3,3.4,3.8,4.4c-0.6,0.5-1.5,1.5-1.7,1.4c-1.2-0.7-2.5-1.5-3.4-2.6
			C495.9,304.5,496.7,303.2,497.4,301.6z"/>
		<path fill="#945B48" d="M204.8,291.4c-0.7-1.2-1.7-2.4-1.4-2.7c0.5-0.8,1.6-1.5,2.5-1.6c0.7,0,1.5,1.1,2.3,1.6
			C207.2,289.6,206.2,290.3,204.8,291.4z"/>
		<path fill="#945B48" d="M66.6,98.4c-1.4,0.8-2.2,1.5-2.6,1.4c-1.3-0.6-2.5-1.5-3.7-2.3c0.5-0.5,1.2-1.5,1.5-1.4
			C63.3,96.6,64.5,97.4,66.6,98.4z"/>
		<path fill="#945B48" d="M721.9,479.2c-1,0.7-2,1.7-2.2,1.5c-0.7-0.5-1.2-1.4-1.7-2.1c0.7-0.4,1.3-1.3,2-1.2
			C720.4,477.4,721,478.3,721.9,479.2z"/>
		<path fill="#945B48" d="M189.5,290.1c0.9,1,1.6,1.7,2.2,2.4c-0.7,0.4-1.3,1.1-2,1c-0.7-0.1-1.3-0.8-1.9-1.3
			C188.3,291.6,188.8,291,189.5,290.1z"/>
		<path fill="#945B48" d="M40.3,194.4c0.2-1.2,0.4-2.3,0.6-3.5c0.5,0.1,1.1,0.3,1.6,0.4c-0.7,1.1-1.4,2.2-2.1,3.2L40.3,194.4z"/>
		<path fill="#945B48" d="M135.3,269.1c-0.3-0.7-0.6-1.2-0.7-1.8c0-0.3,0.6-0.9,0.6-0.8c0.5,0.2,0.9,0.6,1.3,1
			C136.3,267.8,136.1,268.1,135.3,269.1z"/>
		<path fill="#945B48" d="M247.2,575.7c0.3-1.2,0.6-2.3,0.9-3.5c0.2,0.1,0.4,0.2,0.6,0.3C248.2,573.6,247.6,574.6,247.2,575.7
			C247.1,575.7,247.2,575.7,247.2,575.7z"/>
		<path fill="#945B48" d="M813.7,564.9c-0.3,0.2-0.6,0.5-0.8,0.7c-0.2-0.3-0.4-0.6-0.5-1c0-0.1,0.4-0.4,0.5-0.4
			C813.1,564.4,813.4,564.7,813.7,564.9z"/>
		<path fill="#945B48" d="M573.3,286c-0.1,0.4-0.3,0.7-0.4,1.1c-0.4-0.2-0.8-0.4-1.2-0.6c0.2-0.3,0.4-0.7,0.7-0.8
			C572.6,285.5,573,285.8,573.3,286z"/>
		<path fill="#945B48" d="M596.6,399.1c-0.1,0.2-0.3,0.3-0.4,0.5c-0.2-0.2-0.5-0.5-0.7-0.8c0,0,0.2-0.3,0.4-0.5
			C596.1,398.6,596.4,398.8,596.6,399.1z"/>
		<path fill="#945B48" d="M484.7,259c0.9,0.4,1.8,0.8,2.6,1.2c-0.1,0.2-0.3,0.5-0.3,0.5C486.2,260,485.5,259.5,484.7,259L484.7,259z
			"/>
		<path fill="#945B48" d="M127.5,264.3c-0.3,0.2-0.7,0.3-1,0.4c-0.1-0.3-0.2-0.6-0.2-1c0-0.1,0.4-0.3,0.4-0.3
			C127,263.8,127.2,264,127.5,264.3z"/>
		<path fill="#945B48" d="M55.1,100.8c-0.1-0.2-0.2-0.4-0.1-0.5c0.1-0.1,0.3-0.1,0.4-0.2c0.1,0.2,0.1,0.3,0.2,0.5
			C55.4,100.6,55.2,100.7,55.1,100.8z"/>
		<path fill="#945B48" d="M40.5,194.6c-0.4,0.5-0.8,1-1.1,1.4c-0.1-0.1-0.3-0.3-0.4-0.4c0.5-0.4,0.9-0.8,1.4-1.2
			C40.3,194.4,40.5,194.6,40.5,194.6z"/>
		<path fill="#945B48" d="M525,274c-0.1-0.1-0.4-0.1-0.4-0.2c0-0.1,0.1-0.3,0.2-0.4c0.2,0.1,0.4,0.1,0.4,0.2
			C525.3,273.7,525.1,273.9,525,274z"/>
		<path fill="#945B48" d="M650.1,309.1c-0.2-0.1-0.4-0.2-0.5-0.2c0.1-0.2,0.1-0.5,0.3-0.5c0.1-0.1,0.3,0.1,0.5,0.2
			C650.2,308.7,650.1,308.9,650.1,309.1z"/>
		<path fill="#945B48" d="M249.8,578.4c0.1-0.4,0.3-0.8,0.4-1.2c0.2,0.2,0.4,0.3,0.6,0.5C250.5,577.9,250.2,578.2,249.8,578.4
			C249.8,578.4,249.8,578.4,249.8,578.4z"/>
		<polygon fill="#945B48" points="47,192.3 46.6,192 47,191.9 		"/>
		<polygon fill="#945B48" points="664.3,442.8 664.6,443.1 664.2,443.2 		"/>
		<path fill="#945B48" d="M600,418.8c-0.4-0.4-0.7-0.9-1.1-1.3c0.1-0.1,0.3-0.2,0.4-0.3c0.3,0.5,0.6,1,0.9,1.5
			C600.3,418.6,600,418.8,600,418.8z"/>
		<path fill="#945B48" d="M641.8,344.8c0.1,0.3,0.3,0.6,0.4,0.9c-0.2-0.2-0.4-0.5-0.6-0.7C641.7,344.9,641.8,344.8,641.8,344.8z"/>
		<path fill="#945B48" d="M484.7,258.9c-0.1-0.1-0.2-0.3-0.4-0.4C484.5,258.7,484.6,258.8,484.7,258.9
			C484.7,259,484.7,258.9,484.7,258.9z"/>
	</g>
</g>
</svg>
