<?xml version="1.0" encoding="utf-8"?>
<!-- Generator: Adobe Illustrator 18.1.1, SVG Export Plug-In . SVG Version: 6.00 Build 0)  -->
<!DOCTYPE svg PUBLIC "-//W3C//DTD SVG 1.1//EN" "http://www.w3.org/Graphics/SVG/1.1/DTD/svg11.dtd">
<svg version="1.1" id="Layer_1" xmlns="http://www.w3.org/2000/svg" xmlns:xlink="http://www.w3.org/1999/xlink" x="0px" y="0px"
	 viewBox="0 0 946 436.9" enable-background="new 0 0 946 436.9" xml:space="preserve">
<g>
	<path fill="#C7C0AE" d="M468.7,248.5c1.5-8,3.2-15.1,4.8-22.6c1.5-6.8,3.5-13.6,5.1-20.4c1.7-7.1,3.3-14.2,4.8-21.3
		c0.6-2.6,0.9-5.2,1.4-7.9c0.3-1.4-0.1-1.8-1.5-1.4c-5.9,1.6-11.8,3.1-17.6,4.8c-0.9,0.3-1.9,1.5-2.1,2.5
		c-1.6,6.6-2.9,13.2-4.3,19.8c-1.8,8.2-3.7,16.4-5.3,24.7c-1.7,8.6-3.1,17.3-4.6,26c-0.7,3.9-1.6,4.8-6.3,4.1
		c-2.2-0.4-4.9-0.1-4.6-3.1c0.6-5.1,1.1-10.2,1.9-15.2c1.2-7.5,2.5-14.9,3.9-22.3c0.9-4.7,2.1-9.4,3-14.1c1.1-5.5,2.2-11,3.3-16.5
		c0.3-1.5-0.2-1.8-1.6-1.4c-9.6,2.1-15.3,3.3-25,5.3c-4,0.8-8.5,3.4-10.4-3.2c-0.8-2.4-1.3-5.7-1.3-5.7c-0.2-1.6,2.5-2.3,4-2.7
		c12.8-2.9,21.7-4.5,34.6-7.1c2.3-0.5,3.3-1.5,3.9-3.8c1.4-5,3.1-10,5-14.9c1.6-4.8,2.6-3.8,6.3-2.7c3.7,0.7,4.6,0.2,3.5,5.1
		c-0.4,3.3-1.4,6.5-2.1,9.7c-0.1,0.6-0.1,1.3-0.2,1.9c0.6,0,1.3,0.2,1.9,0c5.4-1.4,10.7-3,16.1-4.2c2.8-0.6,3.3-2.7,3.7-4.9
		c1.3-7.1,2.5-14.1,3.8-21.2c0.4-1.9,1-3.8,1.6-5.7c1.4-5.6,2.1-4.3,6.1-3.8c4.2,0.6,5.5-0.1,4.8,5.9c-0.5,4.5-1.2,9-2,13.4
		c-0.5,3.2-1.2,6.3-1.9,9.4c-0.4,1.6,0,2.4,1.8,1.9c8.4-2.3,16.8-4.9,25.3-6.9c10.1-2.4,20.3-4.4,30.4-6.3c4.6-0.9,9.2-1.3,13.8-2.1
		c3.1-0.5,4.4-0.4,5.9,1.8c0.9,2.8,1.5,8.1,1.1,9.5c-0.3,2.1-3.9,1.6-6.1,1.9c-9,1.3-18.2,1.6-27,3.4c-13.5,2.8-26.8,6.6-40.1,9.9
		c-2.4,0.6-4.7,1.3-7,2.2c-0.8,0.3-1.6,1.5-1.9,2.4c-1.9,8.2-3.7,16.3-5.6,24.5c-3.1,13.3-5.8,27.1-8.9,40.4
		c-0.8,3.5-1.4,6.6-2.2,10.2c-0.6,2.3-1.4,5.1-2.3,7c-0.9,1.8-2.6,1.1-8.4,0.5C466.3,254.9,467.6,255.9,468.7,248.5z"/>
	<path fill="#C7C0AE" d="M427.4,203.4c-0.9,4.9-1.9,10-2.8,15.1c-2.3,12.5-4.6,24.9-7,37.4c-0.4,2.2-0.7,5.7-3.9,5.4
		c-7.5-0.8-8.5-1.8-8-6.4c0.6-5.9,2-11.6,2.9-17.5c1.2-7.1,2.2-14.3,3.4-21.5c0.7-4,1.7-7.9,2.5-11.9c0.4-2,0.6-4.1,1.1-6.1
		c0.6-2.3,2.4-3.1,4.6-3c3.5,0.5,6.5,0.4,7.6,2.8C428.5,199.4,428.2,199.5,427.4,203.4z"/>
	<path fill="#C7C0AE" d="M311,294.3c1.2-0.6,9-5.6,10.2-6.3c1.9-1.3,3.7-2.8,5.6-4c6.1-4,11.4-8.8,16.3-14.2
		c5.5-6.1,9.2-12.8,10.1-21.2c1.2-11.5-6.4-22-17.8-23.7c-4.1-0.6-8.2-1.1-12.4-1.7c0.3-0.3,0.7-0.8,1.2-1.2
		c5.1-5.1,10.3-10.1,15.2-15.4c3.2-3.5,6.1-7.4,8.5-11.5c1.2-2.1,1.2-5,1.3-7.6c0.1-1.3-0.5-2.9-1.3-4c-3.5-4.5-8.6-4.8-13.7-4.4
		c-11,0.9-21.1,4.8-30.7,10c-7.4,4-14.1,8.9-19.8,15c-1.1,1.2-2.2,1.7-3.9,1.4c-7.4-0.7-6.9,2.4-7.4,5.7c-0.5,3-0.5,6.1-1,9.1
		c-2.5,15.3-7.5,30-12.2,44.8c-1.6,4.9-3.1,9.9-4.6,14.9c-1,3.4-0.6,4.1,2.5,5.6c0.3,0.2,0.7,0.3,1,0.5c4.6,1.9,7.4,1.1,8.7-3.7
		c0.7-2.5,1.3-5,2.1-7.5c3.8-12,7.8-24,11.5-36c1.4-4.4,2.4-8.9,3.4-13.4c0.9-4.2,1.4-8.4,5.1-11.4c4.5-3.6,8.6-7.6,13.3-10.9
		c8.9-6.3,18.8-10.3,29.7-11.8c1-0.1,1.9-0.1,3.4-0.2c-0.7,1.2-1,2-1.5,2.6c-4.7,5.3-9.3,10.8-14.3,15.8c-7.2,7.1-14.7,13.8-22,20.8
		c-1.2,1.2-2.1,3.4-2.1,5.1c0,3.7,4.7,9.5,8,7.5c0.3-0.1,3.5-1.6,3.9-1.8c7.7-4.2,16-5,24.5-3.9c6.8,0.9,10.7,6.4,8.9,13.5
		c-2,7.7-10.9,16.8-16.9,21.7c-4.9,3.7-9.5,8.3-15.4,11c-5.9,2.8-11.8,5.3-17.8,7.7c-4.1,1.6-8.2,2.5-12.6,0.1
		c-2.7-1.5-2.9-1.8-4.9,1.4c-0.1,0.2-0.8,1.4-1,1.8c-2,2.9-2.1,4.8,0.8,6.7c6,3.9,12.4,4.2,18.9,1.6
		C298,300.4,304.5,297.3,311,294.3z"/>
	<path fill="#C7C0AE" d="M362.8,266.9c-4.5-1.2-6.6-1.6-5.2-6.9c1.8-7.3,3.5-14.7,5.1-22.1c1.1-5.2,1.7-10.6,2.7-15.8
		c0.8-4.2,0.6-7.4,7.9-6.1c1.1,0,2.4-0.7,3.2-1.5c4.4-4.1,8.6-8.4,13-12.4c2.2-2,4.7-3.6,7.8-3.8c1.7-0.2,4.6,2.9,6,4.8
		c1.8,2.1,0.4,3.8-0.7,4.6c-1,0.9-2.8,2.6-4.3,3.6c-7,4.8-13,10.5-17.1,17.9c-3.2,5.7-5.9,11.7-7.1,18.3c-0.9,5.3-2.3,10.5-3.2,15.8
		C370.2,267.9,367.8,267.7,362.8,266.9z"/>
	<path fill="#C7C0AE" d="M653.7,170.5c-0.6,4.7-1.6,10.2-2.1,15.8c-1,11.8-1.3,23.5,2.8,34.9c0.4,1,1.4,1.8,2.2,2.8
		c1-0.9,2.4-1.6,2.9-2.7c2.1-5.5,3.9-11.1,5.8-16.7c3.8-10.6,7.7-21.2,11.6-31.8c0.4-1.1,0.7-2.3,0.9-3.4c0.9-4.6,6.8-6.9,10.6-4.1
		c4,3.1,4.6,6.3,2.7,11c-5.9,14.8-11.6,29.7-17.4,44.6c-3.2,8.2-6.4,16.4-9.4,24.7c-3.5,9.7-7,19.4-10.3,29.2
		c-3.3,9.7-6.3,19.5-9.5,29.3c-1.2,3.7-6.5,5.1-11.1,3.2c-2.4-1-3.4-5.8-2.3-8.8c2.5-6.5,4.8-13.1,7.1-19.7c3-8.5,5.8-17.1,8.8-25.7
		c1.6-4.5,3.5-9,5.2-13.5c0.1-0.4,0-1.3-0.2-1.4c-7.5-3.1-9.1-10.2-11-16.9c-3.8-13.6-3.8-27.5-2.2-41.4c0.5-4.8,1.6-9.5,3.1-14.1
		c1.1-3.5,3.8-4.7,6.6-4c3.3,0.7,5.1,3.1,5.2,6.8C653.7,169,653.7,169.4,653.7,170.5z"/>
	<path fill="#C7C0AE" d="M604.1,226.1c0.8-6.6,2-15.3,3-24.1c0.9-8.1,1.7-16.2,2.5-24.3c0-0.3,0.6-3.5,0.5-3.8
		c0.1-1.7-1.6-1-1.7-0.8c-1,0.8-1.5,1.3-2.2,2.3c-4,5.4-8.3,10.7-11.8,16.5c-2.9,4.7-4.7,10.1-7.1,15.2c-4.5,9.6-7.3,19.7-10.8,29.6
		c-0.2,0.6-1.9,6.8-2,7.4c-1.1,3.9-3.1,2.5-5,1.7c-6-2-7.8-2.2-6.8-7c2.6-13.5,5.5-26.9,7.9-40.4c1.2-6.7,1.6-13.6,2.2-20.4
		c0.4-4.3,2.2-5,5.8-5c4.1-0.1,6.2,0.5,6.6,4.8c0.2,2.5,0,5.1,0,7.6c0,0.4,0.1,0.8,0.1,1.2c0.2-0.2,0.6-0.5,0.7-0.7
		c3.1-5,6.1-10.2,9.4-15c3.5-5.1,7.7-9.5,13.5-12.2c3.3-1.6,9.1,4.4,10.8,5.9c0.7,0.6,1.7,1.5,2.3,2.5c0.6,0.9,0.1,3.7-0.1,6.2
		c-0.9,11.5-2.1,23-3.3,34.4c-1.2,11.3-2,16.3-3.6,28c-0.5,3.7-0.5,7.5-3.5,6.7c-3.7-0.9-6.3-1.4-7.8-2.7c-0.9-0.9-0.5-3-0.2-6
		C604,229,603,238.8,604.1,226.1z"/>
	<path fill="#C7C0AE" d="M551.2,173.7c1.9,1.9,0.7,10,0.7,10c-1.5,9.3-2.5,18.6-3.7,27.9c-1.1,8.4-2.2,16.7-3.2,25.1
		c-0.3,2.3-0.1,4.6,0,6.9c0,4.2-1.3,4.1-6.7,3c-6.3-1.9-6.1-1.6-6.1-5.6c0-5.8,0.1-8.5,0.3-14.3c0-0.4,0-0.9,0.1-1.5
		c-0.3-0.1-0.7,1-0.9,1.4c-2.3,4.7-4.7,9.3-8,13.1c-4.6,5.3-11.6,7.1-16.6,0.3c-3.3-4.5-3.4-9.6-2.7-14.7c1.7-13,5-25.7,11-37.4
		c2.2-4.3,5.7-7.9,8.7-11.9c0.9-1.3,3.2-3.1,5.8-4.4c3.8-1.6,14-0.1,14-0.1S549.3,171.8,551.2,173.7z M538.2,186.7
		c0.2-2-1.6-3-3.3-3c-2.2-0.1-3.7,0.3-4.2,0.7c-4.8,5.3-7.7,12.2-9.9,18.7c-2.8,8.2-5.5,16.6-5.9,23.4c0,1.2-0.3,3.1,2,3
		c0.9-0.1,1.2-0.3,1.6-0.6c3.9-3.3,11.7-16.7,14.7-25c1.6-4.3,1.8-4,3.3-8.3C537.8,191.5,537.9,192.3,538.2,186.7z"/>
	<path fill="#C7C0AE" d="M487.8,287.3c-1,3.9-1.9,7.4-2.6,11.3c-0.3,2.6-0.7,5.5-0.1,6c0.4,0.4,3.4,0.9,3.7,0.4
		c0.6-0.4,0.5-1.2,0.6-2.5c0-1.2,0.1-2.3,0.4-3.6c0.8-3.6,1.5-7.2,2.4-10.7c0.2-0.9,0.8-1.9,1.5-2.3c3.4-1.8,6.9-3.6,10.5-5.1
		c3.4-1.4,6.9-2.6,10.4-3.7c0.7-0.2,1.5-0.4,2.3-0.5c1-0.2,0.1,1.9-0.1,2.6c-0.5,1.7-1.3,3.4-1.9,5c-1.5,3.9-2.9,7.7-4.6,12.3
		c-0.4,0.9-0.8,1.7-1.1,3.4c-0.3,1.7,0,2,0.5,2.3c0.5,0.3,2.1,0.7,2.9,0.4c0.5-0.2,0.8-1.1,1.1-1.7c1-2,1.3-3.6,2.1-5.7
		c2.3-6.1,4.4-12.2,6.5-18.4c1.5-4.3,3.1-8.7,4.7-13c0.5-1.4,0.6-2.3-1.3-3.2c-1.2-0.8-3.3-1.6-3.9,0.2c-0.6,1.4-1.1,3.2-1.5,4.6
		c-1.7,5.2-1.5,5.2-2.5,5.5c-1.8,0.7-2.7,0.9-4.1,1.5c-4.1,1.7-8.3,3.3-12.5,4.9c-1.6,0.6-3.2,1.2-4.8,1.8c-0.9,0.3-1.3,0.2-1.1-1
		c0.3-2.6,0.8-4.6,1.1-7.2c0.2-1.6,0.5-3.4,0.7-5.2c0.1-0.5,0.1-1.1-0.3-1.5c-0.5-0.7-3.1-0.6-3.4-0.4c-1.4,0.7-1.4,1.8-1.5,3.1
		c-0.4,3.9-1.3,8.4-1.9,12.2C489.8,279.1,488.3,285.7,487.8,287.3z"/>
	<path fill="#C7C0AE" d="M580.5,273.5c-2.3,5.9-3.9,2.9-4.3,1.7c-0.7-2.4-1.5-0.9-1.9-0.2c-2.1,2.8-4.4,5.5-6,8.5
		c-1.3,2.4-2.1,4.9-2.7,7.6c-0.6,2.2,0.1,4.7,2,6.2c2,1.5,4.2,1.7,6.4,0.5c3.9-2.2,7.3-5,8.7-9.5c0.1-0.5,0.3-1.3,0.1-1.5
		c-0.1-0.2-1.1,0.1-1.5,0.2c-1.1,0.4-2.1,0.9-3.2,1.4c-0.7,0.3-1.6,0.6-2.2,0.8c-0.7,0.1-1,0.2-1.9-1.7c-1.1-2.3-0.2-2.7,0.6-3.1
		c3.2-1.8,6.6-3.3,10.3-3.7c3.2-0.3,4.2,1.4,3.3,4.5c-1,3.4-2.5,6.6-4.4,9.5c-2.4,3.7-5.4,6.8-9.7,8.1c-3.9,1.1-8,1-11.1-1.9
		c-2.2-2-3.1-5-2.8-8.1c0.7-6.3,3.3-11.8,7.2-16.7c1.4-1.8,2.8-3.7,4.3-5.5c1.7-2,3.6-3.7,6.4-3.9c2.9,0.1,4.4,1.8,3.4,4.6
		C581.1,271.9,580.8,272.7,580.5,273.5z"/>
	<path fill="#C7C0AE" d="M614.4,272.8c-2.3,5.9-3.9,2.9-4.3,1.7c-0.7-2.4-1.5-0.9-1.9-0.2c-2.1,2.8-4.4,5.5-6,8.5
		c-1.3,2.4-2.1,4.9-2.7,7.6c-0.6,2.2,0.1,4.7,2,6.2c2,1.5,4.2,1.7,6.4,0.5c3.9-2.2,7.3-5,8.7-9.5c0.1-0.5,0.3-1.3,0.1-1.5
		c-0.1-0.2-1.1,0.1-1.5,0.2c-1.1,0.4-2.1,0.9-3.2,1.4c-0.7,0.3-1.6,0.6-2.2,0.8c-0.7,0.1-1,0.2-1.9-1.7c-1.1-2.3-0.2-2.7,0.6-3.1
		c3.2-1.8,6.6-3.3,10.3-3.7c3.2-0.3,4.2,1.4,3.3,4.5c-1,3.4-2.5,6.6-4.4,9.5c-2.4,3.7-5.4,6.8-9.7,8.1c-3.9,1.1-8,1-11.1-1.9
		c-2.2-2-3.1-5-2.8-8.1c0.7-6.3,3.3-11.8,7.2-16.7c1.4-1.8,2.8-3.7,4.3-5.5c1.7-2,3.6-3.7,6.4-3.9c2.9,0.1,4.4,1.8,3.4,4.6
		C615.1,271.2,614.7,272,614.4,272.8z"/>
	<path fill="#C7C0AE" d="M549.3,294.9c-2.4,5.9-4.9,8.7-10.7,8.4c-2.7,0-6.7-1.8-8.3-4.7c-1.8-2.7-1.8-5.9-0.6-9.7
		c1.8-5.4,4.4-10.4,7.9-14.8c1.9-2.4,4.2-4.2,7.1-5.3c2.7-1,6,0,7.5,1.5c0.8,0.6,1.1,2.4,1.1,3.1c0.1,2.3,0.1,3.2,0,5.6
		C553,284.5,551.8,289.1,549.3,294.9z M535.9,285.5c-1.3,3.5-2.3,5.6-1.6,8.6c0.3,1.1,1.5,2.8,2.4,3.4c1,0.6,2.5,0.9,3.7,0.6
		c1.3-0.1,2.9-1.5,3.9-3c1-1.5,1.3-2.2,1.3-2.2c2.4-4.7,2.7-7.9,3.4-13.3c0.2-1.4,0.4-4.7-1.4-5.6c-1.9-0.9-3.4-0.1-5,1.3
		C542.6,275.4,539.8,277.2,535.9,285.5z"/>
</g>
<path fill="#C7C0AE" d="M887,187c-1.3,3.5-1.6,8.2-3.7,9.3c-3.1,1.5-7.6,4.8-11.4,0.6c-1-1.1-1.8-2.7-1.8-4.1c0-0.8,1.5-1.8,2.5-2.5
	c3.1-2.2,6.2-4.3,9.3-6.4c0.5-0.3,1.6-0.7,1.9-0.4C884.9,184.5,885.9,185.7,887,187z"/>
<path fill="#C7C0AE" d="M908.1,212.2c-2.8,2.2-4.5,4.1-6.6,4.9c-0.8,0.3-3.9-2.9-3.6-3.4c1.2-2.5,3.2-4.7,4.9-7
	C904.2,208.2,905.6,209.7,908.1,212.2z"/>
<path fill="#C7C0AE" d="M831.5,161.3c-1.4-1.6-3.2-2.8-3.2-3.9c0.2-1.9,1.5-3.6,2.4-5.5c1.5,2.2,3.1,4.5,4.6,6.7
	C834.3,159.4,833.3,160,831.5,161.3z"/>
<path fill="#C7C0AE" d="M924.2,243.8c-1,0.9-1.6,1.8-2.2,1.8c-0.6,0-1.2-1-1.8-1.5c0.6-0.6,1.1-1.5,1.8-1.6
	C922.5,242.3,923.2,243.2,924.2,243.8z"/>
<path fill="#C7C0AE" d="M824.5,142.9c-1.2,1.6-1.6,2.2-2,2.7c-0.5-0.7-1.2-1.3-1.3-2c-0.1-0.5,0.6-1.6,0.9-1.6
	C822.9,142.1,823.7,142.6,824.5,142.9z"/>
<path fill="#C7C0AE" d="M837.2,165c1.1-0.6,1.7-1.2,2.2-1.2c0.6,0.1,1.1,0.7,1.5,1.2c0.1,0.1-0.6,1.1-0.9,1.1
	C839.2,165.9,838.5,165.5,837.2,165z"/>
<path fill="#C7C0AE" d="M919.7,238.4c0.2,0.1,0.5,0.2,0.7,0.4c-0.2,0.2-0.3,0.5-0.5,0.6c-0.2,0.1-0.4-0.2-0.6-0.3
	C919.4,238.8,919.6,238.6,919.7,238.4z"/>
<path fill="#C7C0AE" d="M905.4,237c-0.2-0.1-0.4-0.3-0.6-0.4c0.2-0.2,0.3-0.4,0.5-0.5c0,0,0.3,0.1,0.3,0.2
	C905.6,236.5,905.5,236.8,905.4,237z"/>
<path fill="#C7C0AE" d="M909.1,236.6c0.1,0.1,0.3,0.1,0.4,0.2c0.1,0.1,0,0.3,0,0.4c-0.2-0.1-0.4-0.2-0.6-0.2
	C908.9,236.8,909,236.7,909.1,236.6z"/>
<polygon fill="#C7C0AE" points="826.7,144.9 827.1,144.9 826.9,145.2 "/>
<path fill="#C7C0AE" d="M629.1,336.3c-5.8-2.6-5.8-4.3,0-11.8C629.1,328.4,629.1,332.4,629.1,336.3z"/>
<path fill="#C7C0AE" d="M451.8,285.8c-2.2-1.6-5.4-2.7-6.2-4.8c-0.6-1.4,2.1-4.2,3.4-6.3c0.1-0.2,0.6-0.1,0.6-0.3
	c1.1-4.2,3.3-5.8,7.4-3.5c0.1,0.1,0.6-0.5,0.9-0.9c0.7-0.7,1.3-1.5,1.9-2.2c0.4,1.4,1.4,3.1,1.1,4.3c-0.8,2.4-2.4,4.5-3.6,6.8
	c-0.8,1.5-1.4,3.2-2.4,4.6C454.2,284.5,452.9,285,451.8,285.8C451.9,285.7,451.8,285.8,451.8,285.8z M456,273.6l0.1,0.2l0.1-0.2
	L456,273.6z"/>
<path fill="#C7C0AE" d="M314.4,145.2c0.1-5.4,3.2-8.4,7.2-9.2c2.6-0.5,6.9,0.9,8.2,2.8c1.5,2.3,0.5,6.2,0.6,9.4c0,1-0.2,2.1-0.3,3.1
	c-0.3,2.7-0.8,4.7-4.3,2.7c-2.3-1.3-5.4-1.2-7.4-2.7C316.5,150,315.7,147.3,314.4,145.2z"/>
<path fill="#C7C0AE" d="M588.5,318.6c2.6,0.1,2.8,0.4,2.4,2.2c-0.1,0.3,0.2,0.8,0.4,0.9c1.8,1,1.2,2.3,0.3,3.4
	c-1,1.3-2.2,2.4-1.3,4.3c0.1,0.2-0.3,0.9-0.4,0.9c-0.4,0-1.1-0.2-1.2-0.4c-0.7-2.4-1.3-4.9-1.7-7.4c-0.2-1,0.2-2.2,0.5-3.2
	C587.7,319,588.4,318.7,588.5,318.6z M590,325.3l0-0.1l-0.1,0.1L590,325.3z"/>
<path fill="#C7C0AE" d="M607.7,322.3c-0.3,4.6-1.2,5.9-3.9,5.4c-1.2-0.2-2.9-1.5-3-2.4c-0.3-2.5,2.4-5.2,4.5-4.8
	C606.4,320.7,607.2,321.9,607.7,322.3z"/>
<path fill="#C7C0AE" d="M360.1,167.8c0.1,0.4,0.2,0.9,0.3,1.3c-3.4-0.6-7.5-0.3-10-2.2c-1.3-1-0.8-6.7,0.8-8.6
	c2.3-2.6,6.1-2.8,8.6,1.4C361.5,162.4,364.6,164.9,360.1,167.8c-0.6-0.1-1.2-0.2-1.7-0.2C358.9,167.6,359.5,167.7,360.1,167.8z"/>
<path fill="#C7C0AE" d="M438,133.4c-1.1-1.2-2.3-2.5-3.4-3.7c2-0.9,4.4-2.9,5.8-2.3c3.3,1.3,6.1,3.7,8.8,6c0.4,0.4-0.6,3.8-1.4,4
	c-3,0.6-6.1,0.6-9.1,0.3C438.4,137.5,438.2,134.8,438,133.4c0.1-0.1,0.2-0.2,0.3-0.2C438.1,133.2,438,133.3,438,133.4z"/>
<path fill="#C7C0AE" d="M531.2,164.3c0.6,1.1,1.2,1.8,1.1,2c-0.6,0.9-1.4,1.6-2.1,2.4c-0.6-0.6-1.2-1.2-1.7-1.8
	C529.2,166.2,530,165.5,531.2,164.3z"/>
<path fill="#C7C0AE" d="M493.7,124.5c-1.9,2.2-3.1,3.7-4.4,5.2c-1.7-1.9-3.3-3.9-5-5.8c1.6-1.2,3.1-3.3,4.8-3.5
	C490.3,120.4,491.8,122.8,493.7,124.5z"/>
<path fill="#C7C0AE" d="M178.7,230.5c-2.3-1.9-3.7-3.1-5.2-4.3c2.4-1.8,4.8-3.7,7.3-5.2c0.3-0.2,2.8,2.2,2.6,2.5
	C182.2,225.8,180.6,227.9,178.7,230.5z"/>
<path fill="#C7C0AE" d="M45.4,106.1c-1.3-3.1-2.4-4.8-2.6-6.5c-0.1-0.8,2.1-2.8,2.3-2.7c2,1.2,3.8,2.8,5.7,4.3
	C49.4,102.4,48,103.7,45.4,106.1z"/>
<path fill="#C7C0AE" d="M360.7,268.4c-1.6-1.6-2.8-2.7-3.9-3.8c1.9-1.1,3.6-2.6,5.6-3.1c1-0.2,2.5,1.5,3.8,2.3
	C364.6,265.2,363,266.5,360.7,268.4z"/>
<path fill="#C7C0AE" d="M564.6,386.5c-0.8-1.7-2-3.1-2-4.5c0-1,2.3-2.8,2.6-2.7c2,1.2,3.7,2.8,5.4,4.2
	C568.8,384.4,567.1,385.2,564.6,386.5z"/>
<path fill="#C7C0AE" d="M601.4,405.9c-2,1.1-3.3,2.6-4.7,2.6c-1.1,0-2.2-1.7-3.4-2.6c1.6-1.3,3-2.7,4.8-3.7
	C598.3,402.1,599.8,404.2,601.4,405.9z"/>
<path fill="#C7C0AE" d="M518.7,331.8c-0.3,3.4-0.5,5.6-0.7,7.8c-1.7-2-3.3-4-5-6c1.5-1.1,2.9-2.3,4.4-3.4
	C518.1,331.1,518.8,331.9,518.7,331.8z"/>
<path fill="#C7C0AE" d="M405.4,268.3c0.1,1.2,0.8,2.9,0.3,3.6c-0.7,0.9-2.4,1.5-3.7,1.5c-0.7,0-1.6-1.5-1.8-2.5
	c-0.2-0.8,0.5-1.8,0.9-2.8c0.7,0.3,1.4,0.7,2.2,0.8c0.7,0.1,1.4-0.3,2.1-0.4C405.3,268.4,405.4,268.3,405.4,268.3z"/>
<path fill="#C7C0AE" d="M72.8,154.2c-0.7-1.2-1.4-2.3-2-3.5c1.4-0.5,2.8-1.4,4.1-1.3c1.1,0.1,2.1,1.4,3.1,2.1
	c-1.1,0.9-2.2,1.7-3.4,2.6c0,0,0,0,0,0c-0.3,0.1-0.6,0.1-1,0.2C73.4,154.3,73.1,154.2,72.8,154.2z"/>
<path fill="#C7C0AE" d="M444,266.1c-0.5-2.1-1.1-3.2-1-4.4c0-0.6,1.4-1.8,1.7-1.6c1.1,0.5,2.1,1.4,3.1,2.1
	C446.8,263.2,445.8,264.2,444,266.1z"/>
<path fill="#C7C0AE" d="M391.7,183.9c-1.3,0.9-2,1.7-2.9,1.9c-0.4,0.1-1.1-1.1-1.6-1.7c0.8-0.6,1.4-1.4,2.3-1.7
	C389.9,182.3,390.6,183.2,391.7,183.9z"/>
<path fill="#C7C0AE" d="M124.4,177.5c2.8-0.3,3.9-0.7,5-0.5c0.7,0.1,1.2,1,1.8,1.5c-1,0.2-2,0.6-3.1,0.5
	C127.5,179,126.8,178.5,124.4,177.5z"/>
<path fill="#C7C0AE" d="M326.8,163.9c0.2,1,0.7,2,0.6,3c0,0.5-1.3,1.3-1.8,1.1c-1-0.3-1.8-1.2-2.7-1.8c0.7-0.3,1.4-0.7,2.2-1
	C325.7,164.7,326.2,164.3,326.8,163.9z"/>
<path fill="#C7C0AE" d="M72.8,154.2c0.3,0.1,0.6,0.1,0.9,0.2c0.3-0.1,0.6-0.1,1-0.2c0,0,0,0,0,0c-0.2,1.1-0.4,2.2-0.7,3.3
	c-0.7-0.2-1.3-0.4-2-0.6C72.2,156,72.5,155.1,72.8,154.2z"/>
<path fill="#C7C0AE" d="M336,189.3c1.4,1.6,2,2.3,2.6,3c-0.4,0.3-1,1-1.2,0.9c-0.8-0.5-1.7-1-2.3-1.7
	C335,191.2,335.5,190.4,336,189.3z"/>
<path fill="#C7C0AE" d="M138.5,182.5c-0.4-0.8-1.1-1.6-1-1.8c0.4-0.5,1.1-1,1.7-1.1c0.5,0,1,0.7,1.5,1.1
	C140.1,181.2,139.5,181.7,138.5,182.5z"/>
<path fill="#C7C0AE" d="M45.2,52.2c-0.9,0.5-1.5,1-1.7,0.9c-0.9-0.4-1.7-1-2.5-1.5c0.4-0.3,0.8-1,1-0.9C43,50.9,43.8,51.5,45.2,52.2
	z"/>
<path fill="#C7C0AE" d="M487.5,309.2c-0.7,0.5-1.3,1.2-1.5,1c-0.5-0.3-0.8-0.9-1.2-1.4c0.4-0.3,0.9-0.8,1.3-0.8
	C486.5,308,486.9,308.6,487.5,309.2z"/>
<path fill="#C7C0AE" d="M128.2,181.5c0.6,0.7,1.1,1.2,1.5,1.6c-0.4,0.3-0.9,0.7-1.3,0.7c-0.5,0-0.9-0.6-1.3-0.9
	C127.4,182.6,127.7,182.2,128.2,181.5z"/>
<path fill="#C7C0AE" d="M27.5,117c0.1-0.8,0.3-1.6,0.4-2.4c0.4,0.1,0.7,0.2,1.1,0.3c-0.5,0.7-0.9,1.5-1.4,2.2L27.5,117z"/>
<path fill="#C7C0AE" d="M91.6,167.4c-0.2-0.5-0.4-0.8-0.5-1.2c0-0.2,0.4-0.6,0.4-0.6c0.3,0.2,0.6,0.4,0.9,0.6
	C92.3,166.5,92.1,166.7,91.6,167.4z"/>
<path fill="#C7C0AE" d="M167.1,374.3c0.2-0.8,0.4-1.6,0.6-2.4c0.1,0.1,0.3,0.1,0.4,0.2C167.8,372.9,167.4,373.6,167.1,374.3
	C167.1,374.3,167.1,374.3,167.1,374.3z"/>
<path fill="#C7C0AE" d="M549.4,367c-0.2,0.2-0.4,0.3-0.6,0.5c-0.1-0.2-0.3-0.4-0.3-0.7c0,0,0.2-0.3,0.3-0.2
	C549,366.7,549.2,366.9,549.4,367z"/>
<path fill="#C7C0AE" d="M387.2,178.8c-0.1,0.2-0.2,0.5-0.3,0.7c-0.3-0.1-0.5-0.3-0.8-0.4c0.2-0.2,0.3-0.5,0.5-0.6
	C386.7,178.4,387,178.7,387.2,178.8z"/>
<path fill="#C7C0AE" d="M402.9,255.1c-0.1,0.1-0.2,0.2-0.3,0.3c-0.2-0.2-0.3-0.3-0.5-0.5c0,0,0.2-0.2,0.3-0.3
	C402.6,254.8,402.8,254.9,402.9,255.1z"/>
<path fill="#C7C0AE" d="M327.4,160.5c0.6,0.3,1.2,0.5,1.8,0.8c-0.1,0.1-0.2,0.3-0.2,0.3C328.5,161.3,327.9,160.9,327.4,160.5
	L327.4,160.5z"/>
<path fill="#C7C0AE" d="M86.3,164.2c-0.2,0.1-0.4,0.2-0.6,0.3c-0.1-0.2-0.1-0.4-0.1-0.6c0-0.1,0.3-0.2,0.3-0.2
	C86,163.8,86.2,164,86.3,164.2z"/>
<path fill="#C7C0AE" d="M37.4,53.8c0-0.1-0.1-0.2-0.1-0.3c0-0.1,0.2-0.1,0.3-0.1c0,0.1,0.1,0.2,0.1,0.3
	C37.6,53.7,37.5,53.7,37.4,53.8z"/>
<path fill="#C7C0AE" d="M27.6,117.1c-0.3,0.3-0.5,0.6-0.8,1c-0.1-0.1-0.2-0.2-0.3-0.3c0.3-0.3,0.6-0.5,0.9-0.8
	C27.5,117,27.6,117.1,27.6,117.1z"/>
<path fill="#C7C0AE" d="M354.6,170.7c-0.1,0-0.3-0.1-0.3-0.2c0-0.1,0.1-0.2,0.1-0.3c0.1,0,0.3,0.1,0.3,0.2
	C354.8,170.5,354.7,170.6,354.6,170.7z"/>
<path fill="#C7C0AE" d="M439,194.4c-0.1-0.1-0.2-0.1-0.4-0.2c0.1-0.1,0.1-0.3,0.2-0.3c0.1,0,0.2,0.1,0.4,0.1
	C439.1,194.1,439.1,194.3,439,194.4z"/>
<path fill="#C7C0AE" d="M168.9,376.1c0.1-0.3,0.2-0.5,0.3-0.8c0.1,0.1,0.3,0.2,0.4,0.3C169.4,375.8,169.1,376,168.9,376.1
	C168.9,376.1,168.9,376.1,168.9,376.1z"/>
<polygon fill="#C7C0AE" points="32,115.6 31.7,115.4 32,115.3 "/>
<polygon fill="#C7C0AE" points="448.6,284.6 448.9,284.8 448.6,284.9 "/>
<path fill="#C7C0AE" d="M405.3,268.4c-0.2-0.3-0.5-0.6-0.7-0.9c0.1-0.1,0.2-0.1,0.3-0.2c0.2,0.3,0.4,0.7,0.6,1
	C405.4,268.3,405.3,268.4,405.3,268.4z"/>
<path fill="#C7C0AE" d="M433.5,218.5c0.1,0.2,0.2,0.4,0.3,0.6c-0.1-0.2-0.3-0.3-0.4-0.5C433.4,218.6,433.5,218.5,433.5,218.5z"/>
<path fill="#C7C0AE" d="M327.4,160.5c-0.1-0.1-0.2-0.2-0.2-0.3C327.3,160.3,327.3,160.4,327.4,160.5
	C327.4,160.5,327.4,160.5,327.4,160.5z"/>
</svg>
